<?xml version="1.0" encoding="utf-8"?>
<!-- Generator: Adobe Illustrator 27.2.0, SVG Export Plug-In . SVG Version: 6.00 Build 0)  -->
<svg version="1.1" xmlns="http://www.w3.org/2000/svg" xmlns:xlink="http://www.w3.org/1999/xlink" x="0px" y="0px"
	 viewBox="0 0 1920 1100" style="enable-background:new 0 0 1920 1100;" xml:space="preserve">
<style type="text/css">
	.st0{opacity:0.85;fill:#008587;}
	.st1{opacity:0.85;fill:#F3725B;}
	.st2{opacity:0.85;fill:#F79421;}
	.st3{opacity:0.9;fill:#008587;}
	.st4{opacity:0.9;fill:#F3725B;}
	.st5{opacity:0.9;fill:#F79421;}
	.st6{fill:#008587;}
	.st7{fill:#F3725B;}
	.st8{fill:#F79421;}
	.st9{opacity:0.75;fill:#008587;}
	.st10{opacity:0.75;fill:#F3725B;}
	.st11{opacity:0.75;fill:#F79421;}
	.st12{opacity:0.65;fill:#008587;}
	.st13{opacity:0.65;fill:#F3725B;}
	.st14{opacity:0.65;fill:#F79421;}
	.st15{opacity:0.6;fill:#008587;}
	.st16{opacity:0.6;fill:#F3725B;}
	.st17{opacity:0.6;fill:#F79421;}
	.st18{opacity:0.55;fill:#008587;}
	.st19{opacity:0.55;fill:#F3725B;}
	.st20{opacity:0.55;fill:#F79421;}
	.st21{opacity:0.45;fill:#008587;}
	.st22{opacity:0.45;fill:#F3725B;}
	.st23{opacity:0.45;fill:#F79421;}
	.st24{opacity:0.35;fill:#008587;}
	.st25{opacity:0.35;fill:#F3725B;}
	.st26{opacity:0.35;fill:#F79421;}
	.st27{opacity:0.3;fill:#008587;}
	.st28{opacity:0.3;fill:#F3725B;}
	.st29{opacity:0.3;fill:#F79421;}
	.st30{opacity:0.25;fill:#008587;}
	.st31{opacity:0.25;fill:#F3725B;}
	.st32{opacity:0.25;fill:#F79421;}
	.st33{opacity:0.4;fill:#008587;}
	.st34{opacity:0.4;fill:#F3725B;}
	.st35{opacity:0.4;fill:#F79421;}
</style>
<g id="Layer_1">
</g>
<g id="Layer_2">
	<path class="st0" d="M1138.44,495.33c-3.64,10,3.47,24.13,13.57,36.02c-15.82-4.48-29.75-3.85-36.47,2.55
		c-2.98,2.84-7.12,9.32-1.32,20.82c3.57,7.09,7.38,12.55,11.47,16.44c4.68,4.44,9.73,6.81,15.22,7.17c3.75,0.25,7.6-0.5,11.57-2.25
		l4.87,4.62l47.54-50.08c-3.01-2.86-7.78-2.74-10.64,0.28l-5.64,5.94c4.57-9.54,9.13-24.32,3.83-36.09
		c-3.94-8.75-12.34-14-24.97-15.6C1156.43,483.74,1142.43,484.37,1138.44,495.33z M1170.78,548.46
		c-11.36,14.67-21.19,21.82-29.3,21.28c-6.9-0.46-13.49-6.82-19.58-18.9c-2.52-4.99-2.66-8.6-0.43-10.72
		C1127.63,534.26,1148.79,536.26,1170.78,548.46z M1166.4,493.67c9.46,1.2,15.58,4.77,18.21,10.6c5.02,11.15-2.77,28.54-7.32,35.22
		c-0.46,0.67-0.91,1.33-1.37,1.98c-17.44-11.36-32.78-33.87-29.39-43.2C1148.68,492.35,1159.9,492.85,1166.4,493.67z"/>
	<path class="st1" d="M1174.12,530.07c0,0,9.09-17.05,2.64-25.32c-2.96-3.8-11.68-6.45-12.79-4.22
		C1161.63,505.22,1171.66,511.15,1174.12,530.07z"/>
	<path class="st2" d="M1152.4,546.51c0,0-14.98-5.71-21.09-2.49c-3.51,1.84-5.09,3.7-1.14,8.87
		C1132.78,556.31,1137.62,548.36,1152.4,546.51z"/>
	<path class="st0" d="M1242.16,593.78c-9.73,4.23-23.93-1.89-36.06-11.08c5.04,15.32,4.96,29.09-1.09,36.14
		c-2.68,3.12-8.91,7.61-20.48,2.63c-7.13-3.07-12.67-6.48-16.66-10.26c-4.56-4.33-7.1-9.16-7.67-14.56
		c-0.39-3.69,0.2-7.53,1.77-11.55l-4.75-4.51l47.54-50.08c2.94,2.79,3,7.5,0.14,10.51l-5.64,5.94c9.23-5.12,23.63-10.56,35.45-6.08
		c8.78,3.33,14.29,11.28,16.36,23.63C1252.88,575.3,1252.81,589.15,1242.16,593.78z M1188.49,565.27
		c-14.03,12.14-20.69,22.29-19.85,30.25c0.72,6.78,7.25,12.87,19.41,18.11c5.02,2.16,8.58,2.08,10.59-0.26
		C1204.18,606.93,1201.38,586.18,1188.49,565.27z M1242.7,566.1c-1.55-9.25-5.31-15.06-11.16-17.28
		c-11.19-4.24-28.04,4.55-34.45,9.47c-0.64,0.49-1.27,0.99-1.9,1.47c11.89,16.48,34.69,30.17,43.75,26.23
		C1244.69,583.5,1243.76,572.46,1242.7,566.1z"/>
	<path class="st1" d="M1206.5,560.8c0,0,16.46-10.05,24.87-4.22c3.87,2.68,6.82,11.11,4.66,12.35
		C1231.49,571.54,1225.26,562.03,1206.5,560.8z"/>
	<path class="st2" d="M1191.13,583.28c0,0,6.21,14.41,3.28,20.64c-1.68,3.58-3.45,5.26-8.71,1.69
		C1182.23,603.25,1189.88,597.98,1191.13,583.28z"/>
	<path class="st3" d="M1274.47,397.79c-3.86,18.15,11.87,40.46,32.22,58.14c-28.45-3.4-52.38,1.45-62.46,14.25
		c-4.47,5.68-10.05,17.91,2.78,36.08c7.9,11.2,15.81,19.54,23.83,25.09c9.17,6.35,18.48,9.05,28.07,8.18
		c6.55-0.59,13.03-2.92,19.46-6.99l9.54,6.61l70.06-98.81c-5.91-4.09-14.12-2.59-18.33,3.36l-8.31,11.72
		c5.59-17.6,9.88-44.2-2.14-62.96c-8.94-13.95-24.74-20.68-46.97-20C1302.76,373.03,1278.7,377.91,1274.47,397.79z M1343.3,480.19
		c-16.08,28.25-31.35,43.18-45.5,44.46c-12.04,1.09-24.98-8.04-38.46-27.12c-5.56-7.88-6.69-14.03-3.35-18.27
		C1265.22,467.52,1302.31,465.22,1343.3,480.19z M1322.41,387.37c16.64-0.51,28.1,3.96,34.06,13.25
		c11.39,17.77,2.15,49.72-4.11,62.41c-0.63,1.27-1.26,2.53-1.88,3.76c-32.92-14.77-64.93-49.23-61.32-66.16
		C1291.44,389.91,1310.97,387.72,1322.41,387.37z"/>
	<path class="st4" d="M1344.61,447.73c0,0,11.58-31.72-1.58-44.17c-6.05-5.72-21.77-7.9-23.15-3.78
		C1316.97,408.48,1335.76,415.93,1344.61,447.73z"/>
	<path class="st5" d="M1311.04,481.82c0,0-27.29-5.73-37.09,1.43c-5.62,4.11-7.91,7.72,0.18,15.53
		C1279.49,503.96,1285.92,489.01,1311.04,481.82z"/>
	<path class="st3" d="M1477.76,538.61c-15.79,9.89-41.85,3.25-65.06-9.25c12.43,24.92,15.65,48.57,6.9,62.3
		c-3.88,6.08-13.56,15.48-34.79,10.06c-13.08-3.34-23.49-7.68-31.3-13.1c-8.95-6.2-14.5-13.79-16.8-22.9
		c-1.57-6.22-1.49-12.97,0.25-20.3l-9.3-6.44l70.06-98.81c5.76,3.99,7.02,12.05,2.8,18l-8.31,11.72
		c14.72-11.28,38.3-24.51,59.83-20.04c16,3.33,27.46,15.48,34.04,36.12C1491.82,504,1495.05,527.78,1477.76,538.61z M1378.02,504.24
		c-21.31,24.63-30.38,43.86-26.98,57.29c2.89,11.43,15.66,20.12,37.96,25.81c9.21,2.35,15.35,1.24,18.25-3.31
		C1415.27,571.46,1405.39,536.62,1378.02,504.24z M1471.98,490.98c-4.93-15.45-12.84-24.4-23.51-26.63
		c-20.39-4.24-47.4,15.4-57.28,25.58c-0.99,1.02-1.96,2.04-2.92,3.04c24.56,25.05,67.32,42.38,82.04,33.16
		C1479.65,520.28,1475.36,501.59,1471.98,490.98z"/>
	<path class="st4" d="M1408.07,491.69c0,0,26.03-21.71,41.99-13.98c7.34,3.55,14.49,17.22,11.07,19.93
		C1453.92,503.34,1440.82,488.71,1408.07,491.69z"/>
	<path class="st5" d="M1386.96,534.41c0,0,14.25,23.04,10.7,34.53c-2.04,6.59-4.68,9.96-14.65,5.26
		C1376.42,571.1,1388.36,559.97,1386.96,534.41z"/>
	<path class="st0" d="M1275.57,815.28c-9.41,6.35-12.12,23-10.86,39.59c-10.85-13.78-23.26-21.97-33.07-20.66
		c-4.35,0.58-11.98,3.58-14.18,17.14c-1.36,8.36-1.5,15.46-0.4,21.37c1.26,6.77,4.13,11.97,8.64,15.73
		c3.08,2.57,6.88,4.33,11.39,5.31l1.31,7.04l72.41-13.44c-0.81-4.36-5-7.24-9.36-6.43l-8.59,1.59c9.92-5.37,23.12-15.27,25.92-28.75
		c2.08-10.02-1.88-19.82-11.78-29.11C1298.36,816.55,1285.88,808.32,1275.57,815.28z M1270.19,881.4c-19,5.54-31.96,5.56-38.62,0.01
		c-5.67-4.72-7.37-14.33-5.06-28.58c0.96-5.88,3.09-9.09,6.34-9.52C1241.84,842.11,1258.86,857.1,1270.19,881.4z M1300.74,831.37
		c7.41,6.96,10.46,13.87,9.07,20.55c-2.66,12.77-20.27,22.9-28.39,25.81c-0.81,0.29-1.62,0.57-2.42,0.85
		c-7.93-20.73-7.07-49.77,1.7-55.7C1286.27,819.12,1295.65,826.59,1300.74,831.37z"/>
	<path class="st1" d="M1284.6,867.62c0,0,18.53-9.02,18.15-20.2c-0.17-5.14-6.04-12.89-8.4-11.66
		C1289.39,838.35,1294.33,849.74,1284.6,867.62z"/>
	<path class="st2" d="M1255.55,868.2c0,0-9.35-14.31-16.64-15.37c-4.18-0.61-6.71,0-6.55,6.94
		C1232.48,864.37,1241.63,860.54,1255.55,868.2z"/>
	<path class="st0" d="M1303.41,965.24c-11.04-2.44-19.47-16.62-24.18-32.16c-5.25,16.38-13.95,28.22-23.58,30.51
		c-4.27,1.01-12.46,0.99-19.33-10.57c-4.23-7.12-6.88-13.53-7.95-19.3c-1.22-6.6-0.39-12.35,2.5-17.37
		c1.97-3.43,4.89-6.38,8.76-8.86l-1.27-6.86l72.41-13.44c0.79,4.25-2.1,8.35-6.46,9.16l-8.59,1.59c11.17,1.36,27.01,5.69,34.4,16.96
		c5.5,8.38,5.27,18.69-0.69,30.65C1324.24,956.01,1315.5,967.92,1303.41,965.24z M1274.94,907.01
		c-19.71,1.69-31.83,6.28-36.09,13.67c-3.62,6.3-1.81,15.65,5.4,27.79c2.98,5.01,6.11,7.17,9.3,6.41
		C1262.39,952.79,1272.97,933.13,1274.94,907.01z M1321.21,941.69c4.46-8.96,4.85-16.33,1.19-21.91
		c-7.01-10.67-27.05-13.65-35.67-13.41c-0.86,0.02-1.72,0.05-2.56,0.08c-0.06,21.67,11.03,47.78,21.33,50.06
		C1312.04,957.95,1318.15,947.84,1321.21,941.69z"/>
	<path class="st1" d="M1293.29,914.43c0,0,20.51,1.64,24.11,11.94c1.66,4.73-1.08,13.86-3.71,13.58
		C1308.14,939.36,1308.71,927.25,1293.29,914.43z"/>
	<path class="st2" d="M1265.95,924.21c0,0-3.67,16.33-10.1,19.88c-3.69,2.03-6.27,2.38-8.58-3.99
		C1245.75,935.87,1255.65,936.11,1265.95,924.21z"/>
	<path class="st6" d="M1288.7,87.14c0.43,22.82,25.55,45.59,54.91,61.61c-35.11,3.24-62.48,15.22-71,33.21
		c-3.78,7.97-7.06,24.12,13.42,42.66c12.62,11.43,24.44,19.43,35.61,24.04c12.79,5.28,24.71,6.12,35.98,2.61
		c7.7-2.4,14.82-6.86,21.41-13.42l13.3,5.49l56.49-136.84c-8.24-3.4-17.67,0.52-21.07,8.76l-6.7,16.22
		c1.79-22.6-0.48-55.69-20.16-75.15c-14.63-14.47-35.48-18.49-61.98-11.96C1315.75,50.09,1288.23,62.15,1288.7,87.14z
		 M1394.35,168.5c-11.42,38.1-25.57,59.99-42.2,65.17c-14.15,4.41-32.24-3.24-53.74-22.71c-8.88-8.04-11.95-15.15-9.13-21.11
		C1297.09,173.36,1340.96,161.05,1394.35,168.5z M1343.35,62.27c19.84-4.89,34.84-2.48,44.59,7.17
		c18.64,18.44,16.47,59.23,12.5,76.1c-0.4,1.69-0.8,3.36-1.21,5.01c-43.64-9.28-91.69-42.48-92.09-63.76
		C1306.88,73.3,1329.71,65.64,1343.35,62.27z"/>
	<path class="st7" d="M1386.86,129.13c0,0,5.04-41.11-14.23-52.7c-8.86-5.32-28.34-3.89-28.85,1.42
		C1342.72,89.05,1367.34,93.17,1386.86,129.13z"/>
	<path class="st8" d="M1356.08,178.76c0,0-34.37,0.13-44.12,11.27c-5.59,6.39-7.34,11.32,4.56,18.63
		C1324.39,213.5,1327.94,193.87,1356.08,178.76z"/>
	<path class="st6" d="M1572.08,204.12c-16.2,15.95-49.33,14.67-80.68,5.63c21.89,26.77,32.36,54.37,25.68,73.12
		c-2.96,8.31-11.95,22.1-38.95,21.05c-16.64-0.65-30.34-3.19-41.24-7.69c-12.47-5.15-21.26-12.85-26.57-23.21
		c-3.62-7.07-5.41-15.21-5.37-24.47l-12.97-5.35l56.49-136.84c8.03,3.32,11.79,12.68,8.39,20.92l-6.7,16.22
		c14.51-17.35,39.13-39.33,66.22-39.49c20.14-0.12,37.28,11.54,50.95,34.66C1579.29,158.89,1589.82,186.65,1572.08,204.12z
		 M1442.75,188.48c-18.7,35.1-24.21,60.55-16.38,75.82c6.66,13,24.42,20.15,52.78,21.26c11.71,0.46,18.77-2.46,20.98-8.68
		C1506.24,259.7,1484.65,220.37,1442.75,188.48z M1551.83,148.34c-10.23-17.31-22.23-26.04-35.66-25.96
		c-25.66,0.15-52.59,30.72-61.62,45.5c-0.91,1.48-1.79,2.95-2.66,4.41c36.48,23.79,92.65,33.62,107.75,18.74
		C1569.22,181.6,1558.86,160.23,1551.83,148.34z"/>
	<path class="st7" d="M1475.32,165.65c0,0,25.18-32.8,46.5-27.62c9.8,2.38,22.2,16.97,18.85,21.11
		C1533.61,167.85,1513.8,153.63,1475.32,165.65z"/>
	<path class="st8" d="M1461.92,222.45c0,0,23.54,24.04,22.49,38.77c-0.6,8.45-2.84,13.18-16.11,10.1
		C1459.5,269.27,1470.74,252.82,1461.92,222.45z"/>
	<path class="st9" d="M933.35,997.99c-4.05,4.05-3.79,12.55-1.58,20.65c-6.7-5.78-13.62-8.64-18.36-7.05
		c-2.1,0.71-5.59,2.92-5.38,9.85c0.13,4.27,0.74,7.8,1.85,10.62c1.27,3.23,3.19,5.53,5.79,6.96c1.77,0.97,3.82,1.48,6.15,1.53
		l1.32,3.36l34.56-13.61c-0.82-2.08-3.17-3.1-5.25-2.28l-4.1,1.61c4.4-3.61,9.98-9.78,10.07-16.72c0.07-5.16-2.83-9.63-8.63-13.28
		C944.75,996.43,937.78,993.55,933.35,997.99z M937.03,1031.24c-8.87,4.57-15.29,5.82-19.12,3.72c-3.26-1.79-5.03-6.39-5.25-13.66
		c-0.09-3,0.66-4.8,2.23-5.32C919.23,1014.51,929.09,1020.3,937.03,1031.24z M947.35,1003.54c4.34,2.73,6.51,5.86,6.47,9.31
		c-0.09,6.58-7.84,13.29-11.58,15.5c-0.38,0.22-0.75,0.44-1.12,0.65c-5.92-9.5-8.28-23.96-4.51-27.74
		C939.02,998.87,944.37,1001.66,947.35,1003.54z"/>
	<path class="st10" d="M942.85,1023.04c0,0,8.31-6.24,7.05-11.74c-0.58-2.53-4.23-5.8-5.28-4.97
		C942.41,1008.08,945.95,1013.25,942.85,1023.04z"/>
	<path class="st11" d="M928.52,1026.11c0,0-6.01-6.19-9.72-6.01c-2.13,0.1-3.32,0.64-2.57,4.07
		C916.73,1026.43,920.89,1023.66,928.52,1026.11z"/>
	<path class="st9" d="M961.53,1069.56c-5.7-0.15-11.24-6.36-15.06-13.6c-1.03,8.61-4.19,15.31-8.74,17.37
		c-2.02,0.91-6.07,1.69-10.58-3.38c-2.78-3.12-4.7-6.04-5.79-8.79c-1.24-3.15-1.38-6.08-0.43-8.84c0.65-1.89,1.81-3.63,3.49-5.23
		l-1.29-3.28l34.56-13.61c0.8,2.03-0.24,4.34-2.32,5.16l-4.1,1.61c5.66-0.4,13.92,0.23,18.66,5.09c3.53,3.62,4.4,8.75,2.6,15.24
		C970.96,1062.99,967.77,1069.73,961.53,1069.56z M941.85,1043.47c-9.6,2.73-15.16,6.16-16.55,10.24
		c-1.19,3.47,0.61,7.92,5.34,13.24c1.96,2.2,3.71,2.96,5.22,2.28C940.03,1067.34,943.38,1056.59,941.85,1043.47z M968.09,1056.19
		c1.35-4.86,0.84-8.55-1.51-10.96c-4.49-4.61-14.7-4.16-18.95-3.22c-0.43,0.09-0.85,0.19-1.26,0.29
		c2.05,10.73,10.05,22.59,15.37,22.73C965.1,1065.12,967.16,1059.53,968.09,1056.19z"/>
	<path class="st10" d="M951.64,1045.38c0,0,10.31-1.16,13.09,3.6c1.28,2.18,0.8,6.97-0.53,7.08
		C961.39,1056.3,960.51,1050.24,951.64,1045.38z"/>
	<path class="st11" d="M939.04,1052.84c0,0-0.25,8.44-3.09,10.81c-1.63,1.36-2.88,1.78-4.63-1.15
		C930.16,1060.56,935.09,1059.72,939.04,1052.84z"/>
	<path class="st3" d="M1073.39,315.83c2.46,12.51,18.49,22.6,36.21,28.56c-19,5.2-32.9,14.45-35.84,25.18
		c-1.3,4.76-1.54,13.96,11.53,22.17c8.05,5.06,15.34,8.31,21.94,9.76c7.55,1.66,14.19,0.97,20.05-2.06c4-2.07,7.49-5.22,10.47-9.47
		l7.85,1.73l17.77-80.79c-4.86-1.07-9.67,2.01-10.74,6.87l-2.11,9.58c-1.21-12.61-5.68-30.6-18.4-39.39
		c-9.46-6.54-21.32-6.73-35.27-0.55C1084.67,292.82,1070.7,302.13,1073.39,315.83z M1139.44,350.33
		c-2.57,22.08-8.24,35.5-16.88,39.96c-7.36,3.8-18.05,1.36-31.78-7.27c-5.67-3.56-8.05-7.17-7.08-10.73
		C1086.39,362.46,1109.34,351.42,1139.44,350.33z M1101.04,296.84c10.44-4.62,18.93-4.75,25.23-0.39
		c12.05,8.33,14.83,30.99,14.28,40.66c-0.06,0.97-0.11,1.93-0.18,2.87c-24.92-0.86-54.59-14.45-56.88-26.12
		C1082.05,306.45,1093.87,300.02,1101.04,296.84z"/>
	<path class="st4" d="M1131.49,329.39c0,0-1.23-23.11-12.96-27.61c-5.39-2.07-15.97,0.61-15.74,3.59
		C1103.3,311.63,1117.25,311.51,1131.49,329.39z"/>
	<path class="st5" d="M1119.38,359.69c0,0-18.9,3.42-23.18,10.49c-2.46,4.06-2.94,6.94,4.32,9.81
		C1105.32,381.89,1105.36,370.75,1119.38,359.69z"/>
	<path class="st3" d="M1240.7,352.64c-7.36,10.35-25.72,12.87-43.85,10.95c14.65,12.6,23.09,26.77,21.25,37.74
		c-0.82,4.86-4.43,13.32-19.39,15.37c-9.22,1.26-17.01,1.19-23.44-0.22c-7.36-1.62-12.95-5-16.88-10.19
		c-2.68-3.54-4.46-7.85-5.34-12.94l-7.66-1.68l17.77-80.79c4.74,1.04,7.72,5.83,6.65,10.69l-2.11,9.58
		c6.3-10.96,17.71-25.45,32.6-28.17c11.07-2.02,21.64,2.73,31.41,14.12C1240.27,327.05,1248.76,341.3,1240.7,352.64z
		 M1168.01,356.61c-6.87,21.13-7.43,35.67-1.64,43.32c4.93,6.51,15.4,8.71,31.11,6.57c6.49-0.89,10.09-3.18,10.7-6.82
		C1209.88,389.63,1194.17,370.08,1168.01,356.61z M1224.13,323.92c-7.31-8.53-14.77-12.16-22.15-10.82
		c-14.11,2.58-25.95,22.02-29.48,31.03c-0.35,0.9-0.7,1.8-1.03,2.68c22.39,9.54,54.25,9.49,61.11-0.17
		C1236.94,340.52,1229.15,329.78,1224.13,323.92z"/>
	<path class="st4" d="M1183.72,340.88c0,0,10.66-20.5,22.9-19.72c5.62,0.36,13.87,7.18,12.43,9.78
		C1216,336.43,1203.72,330.53,1183.72,340.88z"/>
	<path class="st5" d="M1181.86,373.44c0,0,15.29,10.94,16.14,19.14c0.49,4.71-0.28,7.53-7.88,7.12
		C1185.09,399.44,1189.67,389.3,1181.86,373.44z"/>
	<path class="st0" d="M1436.01,636.34c-2.73,14.85,10.56,32.92,27.48,47.18c-23.19-2.53-42.51,1.63-50.41,12.17
		c-3.5,4.67-7.75,14.71,3.07,29.43c6.67,9.07,13.29,15.82,19.92,20.28c7.59,5.11,15.21,7.23,22.99,6.44
		c5.31-0.54,10.51-2.49,15.65-5.88l7.9,5.31l54.66-81.27c-4.89-3.29-11.53-1.99-14.82,2.9l-6.48,9.64
		c4.14-14.42,7.03-36.17-3.16-51.38c-7.58-11.31-20.57-16.67-38.61-15.92C1458.43,615.89,1439,620.08,1436.01,636.34z
		 M1493.78,703.01c-12.42,23.2-24.49,35.52-35.95,36.69c-9.76,0.99-20.47-6.35-31.85-21.81c-4.7-6.39-5.75-11.4-3.14-14.89
		C1430.08,693.35,1460.15,691.15,1493.78,703.01z M1474.72,627.42c13.51-0.56,22.91,2.99,27.97,10.52
		c9.65,14.41,2.87,40.57-1.92,50.98c-0.48,1.05-0.96,2.07-1.44,3.09c-27.07-11.77-53.85-39.63-51.3-53.47
		C1449.62,629.76,1465.43,627.81,1474.72,627.42z"/>
	<path class="st1" d="M1494.12,676.51c0,0,8.69-25.99-2.28-36.04c-5.04-4.62-17.86-6.26-18.89-2.88
		C1470.78,644.7,1486.2,650.62,1494.12,676.51z"/>
	<path class="st2" d="M1467.62,704.62c0,0-22.3-4.44-30.09,1.49c-4.47,3.4-6.25,6.37,0.5,12.68
		C1442.49,722.97,1447.38,710.71,1467.62,704.62z"/>
	<path class="st0" d="M1604.32,749.54c-12.6,8.21-33.92,3.01-53.05-6.99c10.66,20.24,13.81,39.52,7.01,50.8
		c-3.01,5-10.66,12.75-28.03,8.51c-10.7-2.61-19.25-6.07-25.72-10.42c-7.41-4.98-12.09-11.14-14.17-18.55
		c-1.42-5.06-1.5-10.58-0.26-16.58l-7.7-5.18l54.66-81.27c4.77,3.21,5.97,9.78,2.68,14.67l-6.48,9.64
		c11.7-9.34,30.56-20.34,48.14-16.88c13.07,2.58,22.65,12.4,28.46,29.19C1614.96,721.16,1618.12,740.55,1604.32,749.54z
		 M1522.53,722.35c-16.75,20.29-23.68,36.07-20.62,47c2.61,9.31,13.18,16.29,31.42,20.74c7.53,1.84,12.49,0.88,14.75-2.86
		C1554.3,776.9,1545.49,748.55,1522.53,722.35z M1598.54,710.7c-4.35-12.57-10.98-19.81-19.7-21.53
		c-16.66-3.29-38.15,12.98-45.95,21.38c-0.78,0.84-1.55,1.68-2.3,2.51c20.52,20.23,55.64,34.01,67.39,26.36
		C1605.43,734.56,1601.53,719.34,1598.54,710.7z"/>
	<path class="st1" d="M1546.66,711.84c0,0,20.65-17.95,33.79-11.78c6.04,2.83,12.16,13.93,9.44,16.17
		C1584.15,720.95,1573.19,709.12,1546.66,711.84z"/>
	<path class="st2" d="M1530.48,746.9c0,0,12.09,18.69,9.47,28.1c-1.5,5.4-3.58,8.17-11.78,4.42
		C1522.74,776.94,1532.19,767.76,1530.48,746.9z"/>
	<path class="st9" d="M1117.76,640.45c-6.05,12.78,1.6,32.33,13.47,49.32c-20.37-7.89-38.86-8.79-48.54-1.16
		c-4.29,3.38-10.57,11.43-4.33,27.37c3.85,9.82,8.2,17.52,13.13,23.16c5.64,6.45,12.02,10.21,19.24,11.37
		c4.93,0.79,10.11,0.28,15.58-1.54l5.86,6.71l69.08-60.33c-3.63-4.16-9.95-4.58-14.1-0.95l-8.19,7.15
		c7.23-12.04,15.09-31.02,9.55-47.24c-4.12-12.06-14.58-20.04-31.08-23.72C1142.98,627.36,1124.38,626.46,1117.76,640.45z
		 M1153.92,714.72c-16.84,17.99-30.73,26.22-41.38,24.51c-9.07-1.46-16.99-10.69-23.55-27.42c-2.71-6.91-2.45-11.7,0.76-14.23
		C1098.63,690.59,1126.36,695.86,1153.92,714.72z M1154.92,641.73c12.35,2.76,20.01,8.23,22.76,16.27
		c5.25,15.37-7.2,37.4-14.05,45.66c-0.69,0.83-1.37,1.64-2.05,2.44c-21.65-17.19-39.15-48.85-33.5-60.76
		C1131.66,637.79,1146.44,639.84,1154.92,641.73z"/>
	<path class="st10" d="M1160.62,690.82c0,0,14.14-21.42,6.64-33.16c-3.44-5.39-14.65-9.98-16.39-7.17
		C1147.19,656.41,1159.71,665.49,1160.62,690.82z"/>
	<path class="st11" d="M1129.86,709.85c0,0-19.1-9.4-27.58-5.92c-4.87,2-7.19,4.26-2.61,11.59
		C1102.7,720.38,1110.08,710.48,1129.86,709.85z"/>
	<path class="st9" d="M1242.68,783.5c-13.38,4.38-31.41-5.47-46.31-19.13c4.76,20.88,2.95,39.09-5.92,47.65
		c-3.93,3.79-12.73,8.96-27.41,0.93c-9.05-4.95-15.95-10.14-20.75-15.64c-5.5-6.3-8.25-12.99-8.34-20.2
		c-0.06-4.92,1.19-9.93,3.77-15.06l-5.72-6.55l69.08-60.33c3.54,4.06,3.04,10.29-1.12,13.92l-8.19,7.15
		c12.84-5.62,32.55-11.03,47.62-3.64c11.2,5.49,17.5,16.69,18.7,33.28C1259.16,760.39,1257.34,778.7,1242.68,783.5z M1175.26,739.15
		c-20.05,14.31-30.13,26.91-30,37.54c0.11,9.05,7.99,17.91,23.41,26.35c6.37,3.48,11.09,3.81,14.03,0.97
		C1190.83,796.17,1189.7,768.39,1175.26,739.15z M1246.83,746.97c-0.9-12.42-5.15-20.57-12.62-24.24
		c-14.28-6.99-37.65,2.53-46.73,8.24c-0.91,0.57-1.81,1.14-2.69,1.71c13.67,23.26,42.12,44.2,54.6,40.11
		C1247.31,770.21,1247.45,755.51,1246.83,746.97z"/>
	<path class="st10" d="M1199.62,735.47c0,0,23.01-11.25,33.41-2.5c4.78,4.02,7.64,15.54,4.63,16.91
		C1231.34,752.77,1224.28,739.42,1199.62,735.47z"/>
	<path class="st11" d="M1176.52,763.28c0,0,6.43,19.83,1.78,27.71c-2.66,4.52-5.21,6.53-11.72,1.16
		C1162.27,788.59,1173.03,782.56,1176.52,763.28z"/>
	<path class="st9" d="M1053.73,931.72c-8.1,4.37-11.63,17.59-11.95,31.08c-7.65-11.99-17.01-19.6-25.04-19.33
		c-3.56,0.12-9.96,1.93-12.82,12.7c-1.77,6.64-2.45,12.36-2.04,17.22c0.47,5.56,2.37,10,5.71,13.39c2.28,2.32,5.2,4.05,8.77,5.2
		l0.49,5.78l59.52-5.03c-0.3-3.58-3.45-6.24-7.04-5.94l-7.06,0.6c8.44-3.53,19.88-10.47,23.23-21.12
		c2.49-7.92,0.08-16.14-7.17-24.44C1072.01,934.57,1062.6,926.93,1053.73,931.72z M1044.07,984.65
		c-15.78,2.95-26.24,1.92-31.17-3.09c-4.2-4.26-4.8-12.16-1.79-23.47c1.24-4.67,3.22-7.09,5.88-7.18
		C1024.35,950.66,1036.88,964.12,1044.07,984.65z M1072.74,946.72c5.42,6.21,7.33,12.04,5.67,17.32
		c-3.17,10.09-18.2,16.86-24.98,18.55c-0.68,0.17-1.35,0.33-2.02,0.49c-4.74-17.37-1.71-40.74,5.85-44.82
		C1062.05,935.68,1069.02,942.45,1072.74,946.72z"/>
	<path class="st7" d="M1056.81,974.69c0,0,15.68-5.79,16.27-14.84c0.27-4.16-3.84-10.89-5.84-10.08
		C1063.02,951.44,1066.1,961.04,1056.81,974.69z"/>
	<path class="st11" d="M1033.32,972.82c0,0-6.4-12.3-12.2-13.74c-3.33-0.83-5.42-0.54-5.84,5.08
		C1015,967.87,1022.7,965.52,1033.32,972.82z"/>
	<path class="st9" d="M1064.15,1054.98c-8.72-2.86-14.38-14.98-16.93-27.9c-5.55,12.8-13.52,21.66-21.48,22.73
		c-3.53,0.48-10.14-0.2-14.75-10.08c-2.84-6.09-4.46-11.47-4.86-16.21c-0.46-5.42,0.68-10,3.41-13.82c1.87-2.61,4.46-4.75,7.78-6.45
		l-0.48-5.64l59.52-5.03c0.3,3.49-2.37,6.57-5.95,6.88l-7.06,0.6c8.91,2,21.34,6.76,26.4,16.45c3.76,7.2,2.75,15.51-3.02,24.68
		C1081.7,1049.21,1073.69,1058.11,1064.15,1054.98z M1045.85,1005.7c-16.05-0.22-26.19,2.51-30.22,8.14
		c-3.43,4.79-2.71,12.48,2.13,22.86c2,4.28,4.35,6.28,6.99,5.92C1032.04,1041.64,1042.16,1026.62,1045.85,1005.7z M1080.41,1037.41
		c4.32-6.87,5.23-12.79,2.72-17.59c-4.8-9.18-20.74-13.19-27.71-13.69c-0.7-0.05-1.39-0.1-2.07-0.14
		c-1.79,17.48,5.07,39.45,13.19,42.11C1071.7,1049.79,1077.44,1042.13,1080.41,1037.41z"/>
	<path class="st7" d="M1060.06,1013.17c0,0,16.42,2.97,18.5,11.57c0.96,3.95-1.98,11.1-4.09,10.66
		C1070.04,1034.48,1071.48,1024.74,1060.06,1013.17z"/>
	<path class="st11" d="M1037.21,1018.86c0,0-4.27,12.89-9.75,15.23c-3.14,1.35-5.25,1.42-6.6-3.91
		C1019.97,1026.65,1027.95,1027.63,1037.21,1018.86z"/>
	<path class="st3" d="M1571.74,464.92c-7.77,8.03-6.99,24.61-2.41,40.33c-13.25-11.06-26.86-16.42-36.04-13.16
		c-4.07,1.44-10.81,5.88-10.17,19.39c0.39,8.32,1.7,15.19,3.96,20.66c2.59,6.26,6.41,10.69,11.52,13.39
		c3.49,1.84,7.5,2.77,12.05,2.79l2.69,6.51l66.99-27.66c-1.67-4.03-6.28-5.95-10.32-4.29l-7.94,3.28
		c8.46-7.18,19.15-19.4,19.11-32.95c-0.03-10.07-5.84-18.7-17.26-25.63C1593.94,461.51,1580.25,456.13,1571.74,464.92z
		 M1580.01,529.68c-17.16,9.2-29.64,11.85-37.18,7.87c-6.42-3.39-10.01-12.3-10.68-26.49c-0.28-5.86,1.13-9.38,4.17-10.46
		C1544.73,497.61,1564.15,508.58,1580.01,529.68z M1599.24,475.29c8.55,5.19,12.89,11.23,12.92,17.94
		c0.04,12.83-14.86,26.17-22.08,30.62c-0.73,0.45-1.44,0.88-2.15,1.31c-11.85-18.35-16.93-46.48-9.69-53.97
		C1582.82,466.45,1593.37,471.73,1599.24,475.29z"/>
	<path class="st4" d="M1591.08,513.48c0,0,16-12.45,13.37-23.14c-1.21-4.91-8.44-11.18-10.46-9.52
		C1589.73,484.32,1596.81,494.29,1591.08,513.48z"/>
	<path class="st5" d="M1563.23,519.94c0,0-11.92-11.88-19.15-11.41c-4.15,0.27-6.46,1.36-4.89,8.02
		C1540.23,520.95,1548.27,515.4,1563.23,519.94z"/>
	<path class="st3" d="M1629.03,603.64c-11.13-0.11-22.13-12.05-29.82-26.05c-1.73,16.84-7.69,30.01-16.5,34.17
		c-3.91,1.84-11.8,3.49-20.75-6.24c-5.52-6-9.37-11.63-11.57-16.96c-2.52-6.1-2.88-11.82-1.12-17.23c1.2-3.7,3.41-7.13,6.64-10.32
		l-2.62-6.35l66.99-27.66c1.62,3.93-0.33,8.47-4.36,10.14l-7.94,3.28c11.03-0.96,27.16-0.01,36.57,9.33
		c7,6.95,8.87,16.92,5.57,29.65C1647.22,590.52,1641.22,603.76,1629.03,603.64z M1589.79,553.37c-18.63,5.64-29.37,12.51-31.96,20.5
		c-2.21,6.8,1.44,15.43,10.85,25.65c3.89,4.22,7.34,5.66,10.26,4.28C1587.01,600,1593.2,578.92,1589.79,553.37z M1641.39,577.35
		c2.47-9.53,1.35-16.71-3.31-21.34c-8.92-8.85-28.82-7.64-37.07-5.66c-0.83,0.2-1.64,0.4-2.45,0.6
		c4.35,20.87,20.34,43.75,30.71,43.86C1635.86,594.87,1639.69,583.89,1641.39,577.35z"/>
	<path class="st4" d="M1608.96,556.78c0,0,20.08-2.59,25.64,6.59c2.56,4.22,1.78,13.56-0.81,13.83
		C1628.33,577.77,1626.42,565.98,1608.96,556.78z"/>
	<path class="st5" d="M1584.63,571.75c0,0-0.21,16.47-5.68,21.19c-3.14,2.71-5.55,3.57-9.07-2.1
		C1567.55,587.09,1577.13,585.3,1584.63,571.75z"/>
	<path class="st12" d="M748.65,912.57c-5.82,4.54-6.84,15.45-5.28,26.16c-7.65-8.45-16.06-13.21-22.37-11.93
		c-2.8,0.57-7.61,2.85-8.44,11.75c-0.51,5.48-0.28,10.09,0.69,13.88c1.12,4.33,3.21,7.58,6.31,9.82c2.11,1.53,4.65,2.5,7.62,2.94
		l1.16,4.51l46.36-11.93c-0.72-2.79-3.56-4.47-6.35-3.75l-5.5,1.41c6.2-3.92,14.31-10.93,15.53-19.8c0.91-6.59-2.1-12.77-8.93-18.35
		C763.48,912.38,755.02,907.6,748.65,912.57z M748.1,955.68c-12.07,4.44-20.48,5.02-25.05,1.73c-3.89-2.81-5.42-8.97-4.55-18.31
		c0.36-3.86,1.6-6.03,3.69-6.46C727.97,931.47,739.67,940.43,748.1,955.68z M765.68,921.88c5.12,4.18,7.4,8.53,6.8,12.93
		c-1.15,8.4-12.13,15.75-17.26,18c-0.52,0.23-1.03,0.44-1.53,0.66c-6.07-13.09-6.8-31.96-1.37-36.2
		C755.76,914.58,762.17,919.01,765.68,921.88z"/>
	<path class="st13" d="M756.83,946.11c0,0,11.62-6.67,10.87-13.91c-0.34-3.32-4.49-8.09-5.96-7.19
		C758.63,926.91,762.35,934.08,756.83,946.11z"/>
	<path class="st14" d="M738.02,947.77c0,0-6.7-8.86-11.48-9.23c-2.74-0.21-4.35,0.3-3.94,4.79
		C722.88,946.32,728.65,943.43,738.02,947.77z"/>
	<path class="st12" d="M773.36,1008.58c-7.27-1.09-13.37-9.92-17.11-19.78c-2.68,10.85-7.79,18.92-13.94,20.83
		c-2.72,0.85-8.04,1.19-13-5.99c-3.06-4.43-5.06-8.47-6.01-12.16c-1.09-4.23-0.8-7.99,0.85-11.38c1.13-2.31,2.89-4.35,5.29-6.14
		l-1.13-4.39l46.36-11.93c0.7,2.72-0.99,5.51-3.78,6.23l-5.5,1.41c7.3,0.39,17.77,2.49,23.06,9.47c3.94,5.19,4.25,11.89,0.92,19.91
		C786.47,1001.67,781.32,1009.78,773.36,1008.58z M752.32,972.08c-12.71,1.97-20.36,5.48-22.8,10.47
		c-2.07,4.25-0.48,10.23,4.74,17.78c2.15,3.12,4.28,4.38,6.32,3.75C746.21,1002.33,752.2,989.11,752.32,972.08z M783.87,992.52
		c2.49-6.01,2.42-10.8-0.2-14.26c-5.02-6.61-18.15-7.65-23.73-7.11c-0.56,0.05-1.11,0.11-1.66,0.17
		c0.92,14.05,9.28,30.49,16.06,31.51C778.64,1003.47,782.15,996.64,783.87,992.52z"/>
	<path class="st13" d="M764.54,976.08c0,0,13.37,0.15,16.17,6.67c1.29,3-0.08,9.04-1.8,8.97
		C775.28,991.59,775.12,983.7,764.54,976.08z"/>
	<path class="st14" d="M747.25,983.63c0,0-1.65,10.75-5.67,13.34c-2.3,1.48-3.96,1.82-5.74-2.21
		C734.66,992.09,741.1,991.81,747.25,983.63z"/>
	<path class="st6" d="M1626.81,260.63c-9.25,6.33-11.83,22.78-10.49,39.16c-10.8-13.54-23.1-21.55-32.78-20.2
		c-4.29,0.6-11.81,3.61-13.9,17.01c-1.29,8.26-1.38,15.27-0.27,21.1c1.28,6.67,4.15,11.8,8.63,15.48c3.06,2.51,6.81,4.24,11.28,5.17
		l1.33,6.94l71.42-13.71c-0.83-4.3-4.98-7.11-9.28-6.29l-8.47,1.63c9.76-5.36,22.73-15.22,25.42-28.54c2-9.91-1.97-19.55-11.8-28.67
		C1649.31,261.75,1636.94,253.7,1626.81,260.63z M1621.89,325.95c-18.72,5.59-31.53,5.68-38.14,0.25
		c-5.63-4.62-7.36-14.11-5.17-28.19c0.91-5.81,3-8.99,6.21-9.44C1593.67,287.33,1610.55,302.02,1621.89,325.95z M1651.75,276.36
		c7.36,6.83,10.41,13.64,9.08,20.24c-2.54,12.62-19.88,22.73-27.87,25.65c-0.8,0.29-1.6,0.58-2.38,0.85
		c-7.96-20.42-7.28-49.1,1.34-55C1637.39,264.36,1646.69,271.67,1651.75,276.36z"/>
	<path class="st7" d="M1636.03,312.26c0,0,18.24-9.02,17.8-20.05c-0.2-5.07-6.04-12.69-8.36-11.46
		C1640.59,283.33,1645.53,294.55,1636.03,312.26z"/>
	<path class="st8" d="M1607.36,313c0,0-9.32-14.07-16.52-15.07c-4.13-0.57-6.63,0.04-6.42,6.89
		C1584.55,309.36,1593.56,305.52,1607.36,313z"/>
	<path class="st6" d="M1655.19,408.53c-10.92-2.35-19.33-16.3-24.07-31.61c-5.09,16.2-13.6,27.95-23.1,30.26
		c-4.21,1.03-12.3,1.05-19.15-10.32c-4.22-7.01-6.87-13.32-7.96-19.01c-1.25-6.51-0.46-12.2,2.37-17.17
		c1.93-3.39,4.79-6.33,8.6-8.81l-1.3-6.77l71.42-13.71c0.8,4.19-2.03,8.26-6.33,9.09l-8.47,1.63c11.04,1.28,26.7,5.46,34.07,16.54
		c5.48,8.24,5.31,18.42-0.49,30.27C1675.71,399.29,1667.14,411.1,1655.19,408.53z M1626.74,351.21
		c-19.45,1.79-31.39,6.39-35.55,13.72c-3.54,6.24-1.69,15.46,5.5,27.4c2.97,4.93,6.07,7.04,9.22,6.28
		C1614.61,396.48,1624.94,377.01,1626.74,351.21z M1672.63,385.17c4.35-8.87,4.7-16.15,1.04-21.64
		c-6.98-10.5-26.79-13.31-35.3-13.03c-0.85,0.03-1.69,0.06-2.53,0.1c0.07,21.39,11.18,47.11,21.36,49.3
		C1663.67,401.28,1669.64,391.27,1672.63,385.17z"/>
	<path class="st7" d="M1644.89,358.43c0,0,20.26,1.49,23.88,11.64c1.67,4.66-0.98,13.69-3.58,13.43
		C1659.71,382.95,1660.2,370.98,1644.89,358.43z"/>
	<path class="st8" d="M1617.96,368.24c0,0-3.52,16.15-9.85,19.69c-3.63,2.03-6.18,2.39-8.49-3.89
		C1598.08,379.88,1607.87,380.05,1617.96,368.24z"/>
	<path class="st6" d="M1490.58,341.15c-4.17,5.08-2.92,14.77,0.52,23.77c-8.3-5.85-16.54-8.34-21.77-5.99
		c-2.32,1.04-6.06,3.97-5.04,11.86c0.63,4.86,1.73,8.83,3.31,11.93c1.82,3.55,4.27,5.96,7.4,7.3c2.14,0.91,4.53,1.27,7.2,1.06
		l1.89,3.69l37.97-19.44c-1.17-2.29-3.97-3.19-6.26-2.02l-4.5,2.3c4.62-4.62,10.31-12.3,9.63-20.24
		c-0.5-5.91-4.32-10.69-11.35-14.21C1503.43,338.09,1495.14,335.58,1490.58,341.15z M1498.53,378.74
		c-9.63,6.22-16.82,8.37-21.43,6.4c-3.93-1.68-6.46-6.74-7.54-15.03c-0.44-3.42,0.21-5.55,1.95-6.33
		C1476.3,361.62,1488.22,367.13,1498.53,378.74z M1507.2,345.92c5.26,2.64,8.1,5.97,8.44,9.91c0.64,7.53-7.46,16.06-11.49,19.02
		c-0.4,0.3-0.8,0.59-1.2,0.87c-7.83-10.19-12.16-26.45-8.27-31.19C1497.15,341.52,1503.59,344.11,1507.2,345.92z"/>
	<path class="st7" d="M1504.25,368.71c0,0,8.79-8.07,6.73-14.21c-0.95-2.82-5.49-6.15-6.59-5.08
		C1502.06,351.67,1506.69,357.18,1504.25,368.71z"/>
	<path class="st8" d="M1488.22,373.83c0,0-7.56-6.4-11.78-5.78c-2.42,0.35-3.73,1.11-2.48,4.94
		C1474.78,375.53,1479.22,371.89,1488.22,373.83z"/>
	<path class="st6" d="M1530.83,419.78c-6.53,0.47-13.56-6.01-18.74-13.85c-0.21,9.96-3.07,17.97-8.04,20.83
		c-2.2,1.27-6.75,2.61-12.47-2.67c-3.53-3.25-6.06-6.37-7.6-9.4c-1.77-3.46-2.26-6.79-1.49-10.05c0.53-2.23,1.66-4.35,3.4-6.37
		l-1.84-3.6l37.97-19.44c1.14,2.23,0.21,4.98-2.07,6.15l-4.5,2.3c6.43-1.09,15.93-1.31,21.9,3.72c4.44,3.74,6.02,9.5,4.69,17.12
		C1540.87,411.21,1537.99,419.26,1530.83,419.78z M1505.4,392.17c-10.66,4.2-16.63,8.75-17.77,13.56c-0.97,4.1,1.59,8.98,7.6,14.53
		c2.48,2.29,4.58,2.97,6.22,2.02C1506.01,419.65,1508.63,406.99,1505.4,392.17z M1536.82,403.76c0.99-5.71-0.01-9.86-2.96-12.36
		c-5.65-4.76-17.27-3.1-22.01-1.54c-0.48,0.16-0.94,0.31-1.41,0.47c3.55,12.04,14.03,24.69,20.12,24.25
		C1534.42,414.3,1536.14,407.68,1536.82,403.76z"/>
	<path class="st7" d="M1516.81,393.25c0,0,11.65-2.48,15.36,2.64c1.7,2.35,1.69,7.87,0.19,8.15
		C1529.18,404.63,1527.49,397.81,1516.81,393.25z"/>
	<path class="st8" d="M1503.25,403.2c0,0,0.67,9.67-2.32,12.7c-1.71,1.74-3.09,2.36-5.42-0.8
		C1493.97,413.01,1499.51,411.51,1503.25,403.2z"/>
	<path class="st0" d="M1361.02,648.06c0.59,12.6-12.22,25.82-27.58,35.42c19.17,0.88,34.46,6.79,39.73,16.5
		c2.34,4.3,4.7,13.13-5.74,23.89c-6.44,6.63-12.57,11.35-18.46,14.19c-6.75,3.24-13.19,4.02-19.44,2.37
		c-4.26-1.12-8.29-3.4-12.1-6.85l-7.02,3.37l-35.59-74.06c4.35-2.09,9.61-0.17,11.75,4.29l4.22,8.78c-1.79-12.43-1.74-30.75,8.23-42
		c7.42-8.36,18.59-11.12,33.21-8.2C1345,628.31,1360.38,634.25,1361.02,648.06z M1306.61,695.69c7.57,20.74,16.04,32.45,25.25,34.88
		c7.84,2.07,17.38-2.62,28.35-13.92c4.53-4.67,5.94-8.67,4.19-11.89C1359.57,695.86,1335.32,690.2,1306.61,695.69z M1330.47,635.75
		c-10.94-2.19-19-0.47-23.94,5.11c-9.45,10.66-6.81,33.11-4.04,42.32c0.28,0.92,0.56,1.83,0.84,2.73
		c23.35-6.25,48.23-25.81,47.68-37.57C1350.65,640.89,1337.99,637.25,1330.47,635.75z"/>
	<path class="st1" d="M1309.26,673.77c0,0-4.22-22.56,5.83-29.45c4.61-3.17,15.24-2.88,15.71,0.04
		C1331.77,650.51,1318.56,653.42,1309.26,673.77z"/>
	<path class="st2" d="M1327.75,700.36c0,0,18.66-0.81,24.35,5.08c3.27,3.38,4.39,6.06-1.8,10.4
		C1346.2,718.72,1343.57,707.98,1327.75,700.36z"/>
	<path class="st9" d="M956.53,824.78c-3.11,7.73,2.08,18.97,9.67,28.54c-12.26-3.92-23.17-3.8-28.6,1.04
		c-2.41,2.14-5.81,7.1-1.58,16.25c2.61,5.64,5.45,10.02,8.54,13.16c3.55,3.6,7.43,5.58,11.72,6.01c2.93,0.29,5.96-0.19,9.11-1.46
		l3.69,3.74l38.51-37.94c-2.28-2.32-6.01-2.35-8.33-0.06l-4.57,4.5c3.83-7.34,7.78-18.79,3.94-28.13
		c-2.85-6.95-9.29-11.28-19.13-12.86C970.9,816.18,959.93,816.31,956.53,824.78z M980.43,867.2c-9.27,11.18-17.15,16.52-23.48,15.88
		c-5.39-0.54-10.37-5.69-14.82-15.3c-1.84-3.97-1.86-6.8-0.06-8.4C947.05,854.96,963.55,857.08,980.43,867.2z M978.44,824.22
		c7.37,1.18,12.06,4.14,13.97,8.77c3.63,8.86-2.91,22.26-6.65,27.36c-0.38,0.51-0.75,1.01-1.12,1.51
		c-13.35-9.35-24.76-27.36-21.86-34.57C964.61,822.72,973.38,823.4,978.44,824.22z"/>
	<path class="st10" d="M983.53,852.9c0,0,7.56-13.1,2.73-19.74c-2.22-3.05-8.97-5.35-9.9-3.64
		C974.41,833.13,982.1,838.02,983.53,852.9z"/>
	<path class="st11" d="M966.1,865.18c0,0-11.57-4.86-16.44-2.51c-2.79,1.35-4.08,2.76-1.13,6.91
		C950.5,872.34,954.49,866.25,966.1,865.18z"/>
	<path class="st9" d="M1035.09,904.52c-7.72,3.05-18.67-2.1-27.92-9.62c3.54,12.12,3.12,22.89-1.8,28.24
		c-2.18,2.37-7.17,5.72-16.09,1.52c-5.5-2.59-9.74-5.4-12.76-8.47c-3.46-3.51-5.31-7.35-5.62-11.59c-0.21-2.89,0.35-5.89,1.69-8.99
		l-3.6-3.65l38.51-37.94c2.23,2.26,2.15,5.94-0.16,8.23l-4.57,4.5c7.35-3.76,18.76-7.64,27.89-3.83c6.79,2.83,10.89,9.2,12.18,18.92
		C1043.97,890.35,1043.54,901.18,1035.09,904.52z M993.85,880.81c-11.29,9.13-16.78,16.9-16.32,23.15
		c0.39,5.32,5.33,10.26,14.71,14.68c3.87,1.82,6.66,1.85,8.29,0.08C1005.03,913.81,1003.38,897.51,993.85,880.81z M1036.24,882.88
		c-0.97-7.28-3.76-11.92-8.28-13.81c-8.65-3.61-22.06,2.82-27.2,6.5c-0.52,0.37-1.02,0.74-1.52,1.1
		c8.87,13.2,26.35,24.52,33.54,21.67C1037.34,896.54,1036.9,887.88,1036.24,882.88z"/>
	<path class="st10" d="M1008.05,877.79c0,0,13.14-7.43,19.57-2.65c2.95,2.2,5.04,8.87,3.33,9.78
		C1027.33,886.84,1022.7,879.24,1008.05,877.79z"/>
	<path class="st11" d="M995.45,894.97c0,0,4.48,11.44,2.03,16.24c-1.41,2.75-2.83,4.02-6.86,1.1
		C987.96,910.36,994.08,906.43,995.45,894.97z"/>
	<path class="st9" d="M1090.78,835.31c-1.73,7.91,5.05,17.84,13.86,25.79c-12.38-1.78-22.81,0.09-27.23,5.6
		c-1.96,2.44-4.43,7.74,1.11,15.83c3.41,4.98,6.83,8.72,10.3,11.23c3.98,2.88,8.02,4.15,12.2,3.87c2.85-0.19,5.68-1.14,8.49-2.86
		l4.13,2.99l30.79-42.54c-2.56-1.85-6.14-1.28-7.99,1.28l-3.65,5.04c2.48-7.65,4.43-19.25-0.75-27.59
		c-3.85-6.2-10.71-9.31-20.39-9.24C1103.17,824.76,1092.68,826.65,1090.78,835.31z M1120.51,872.1c-7.08,12.2-13.77,18.58-19.94,19
		c-5.25,0.35-10.85-3.78-16.66-12.27c-2.4-3.51-2.87-6.21-1.41-8.04C1086.56,865.75,1102.71,865.12,1120.51,872.1z M1111.68,831.25
		c7.25-0.05,12.22,2.02,14.79,6.15c4.91,7.9,0.79,21.79-1.97,27.28c-0.28,0.55-0.55,1.09-0.83,1.63
		c-14.29-6.81-28.12-22.22-26.51-29.6C1098.19,832.04,1106.7,831.28,1111.68,831.25z"/>
	<path class="st10" d="M1121.18,857.9c0,0,5.13-13.77-0.56-19.35c-2.62-2.57-9.46-3.68-10.07-1.89
		C1109.26,840.43,1117.41,843.89,1121.18,857.9z"/>
	<path class="st11" d="M1106.46,872.48c0,0-11.87-2.79-16.15,0.25c-2.46,1.74-3.47,3.3,0.03,6.8
		C1092.66,881.85,1095.5,875.37,1106.46,872.48z"/>
	<path class="st9" d="M1178.88,899.07c-6.9,4.17-18.23,0.99-28.3-4.72c5.34,11.04,6.67,21.43,2.82,27.35
		c-1.71,2.62-5.95,6.64-15.18,4.04c-5.69-1.6-10.2-3.61-13.59-6.06c-3.88-2.81-6.27-6.19-7.25-10.2c-0.67-2.74-0.61-5.7,0.17-8.89
		l-4.03-2.92l30.79-42.54c2.5,1.81,3.02,5.35,1.17,7.91l-3.65,5.04c6.44-4.79,16.75-10.34,26.1-8.16
		c6.96,1.62,11.91,7.06,14.71,16.16C1185.1,884.06,1186.44,894.5,1178.88,899.07z M1135.56,882.99
		c-9.35,10.56-13.35,18.89-11.91,24.8c1.23,5.03,6.76,8.97,16.45,11.69c4,1.12,6.68,0.7,7.96-1.26
		C1151.58,912.8,1147.38,897.45,1135.56,882.99z M1176.5,878.15c-2.1-6.82-5.52-10.82-10.16-11.9c-8.87-2.07-20.68,6.25-25.01,10.61
		c-0.43,0.44-0.86,0.87-1.28,1.3c10.62,11.22,29.19,19.25,35.62,15.36C1179.76,891.06,1177.94,882.83,1176.5,878.15z"/>
	<path class="st10" d="M1148.68,877.8c0,0,11.39-9.24,18.32-5.69c3.18,1.63,6.26,7.69,4.76,8.84
		C1168.6,883.38,1162.94,876.84,1148.68,877.8z"/>
	<path class="st11" d="M1139.36,896.29c0,0,6.14,10.24,4.56,15.23c-0.91,2.86-2.07,4.31-6.39,2.15
		C1134.67,912.25,1139.9,907.5,1139.36,896.29z"/>
	<path class="st0" d="M1459.08,833.34c-7.4,11.69-27.21,15.51-47.05,14.47c16.67,12.84,26.69,27.76,25.32,39.8
		c-0.61,5.34-4.03,14.75-20.18,17.85c-9.95,1.91-18.43,2.3-25.51,1.13c-8.1-1.33-14.38-4.68-18.95-10.09
		c-3.12-3.69-5.31-8.27-6.56-13.76l-8.43-1.38l14.59-88.91c5.22,0.86,8.74,5.89,7.86,11.24l-1.73,10.54
		c6.21-12.29,17.76-28.72,33.8-32.55c11.92-2.85,23.69,1.7,34.98,13.51C1457.11,805.53,1467.18,820.54,1459.08,833.34z
		 M1380.26,841.92c-6.24,23.39-5.99,39.23,0.76,47.21c5.74,6.79,17.26,8.57,34.22,5.32c7-1.35,10.79-4.05,11.24-8.04
		C1427.72,875.38,1409.5,855.04,1380.26,841.92z M1439.37,803.07c-8.45-8.85-16.77-12.36-24.72-10.47
		c-15.19,3.63-26.93,25.47-30.24,35.47c-0.33,1-0.65,2-0.97,2.98c24.91,9.07,59.56,7.14,66.46-3.76
		C1454.28,820.39,1445.18,809.15,1439.37,803.07z"/>
	<path class="st1" d="M1396.41,823.9c0,0,10.4-22.92,23.75-22.79c6.14,0.06,15.5,6.99,14.09,9.91
		C1431.27,817.16,1417.56,811.46,1396.41,823.9z"/>
	<path class="st2" d="M1396.31,859.41c0,0,17.27,11,18.68,19.87c0.81,5.09,0.14,8.2-8.16,8.21
		C1401.34,887.5,1405.73,876.2,1396.31,859.41z"/>
	<path class="st6" d="M1156.86,106.71c17.38-5.86,31.46-4.23,41.82,4.81c13.94,12.17,16.86,34.53,16.62,49.98l3.78-11.38
		c1.92-5.78,8.04-8.94,13.67-7.07l-31.86,95.98l-9.1-3.02c-4.11,4.81-8.67,8.22-13.7,10.26c-7.37,2.99-15.35,3.05-24.1,0.15
		c-7.64-2.54-15.86-7.34-24.76-14.43c-14.43-11.5-12.93-22.65-10.75-28.27c4.92-12.68,22.66-22.28,45.92-26.35
		c-20.25-9.32-37.96-23.44-39.21-38.92C1123.82,121.49,1141.65,111.83,1156.86,106.71z M1129.93,208.18
		c-1.63,4.2,0.72,8.86,6.98,13.85c15.16,12.08,27.54,16.31,36.78,12.56c10.86-4.4,19.37-20.03,25.37-46.52
		C1163.16,185.86,1134.43,196.57,1129.93,208.18z M1137.47,137.22c1.17,14.43,34.6,34.42,64.09,38.4c0.2-1.14,0.4-2.29,0.59-3.47
		c1.93-11.67,1.65-39.5-11.56-51.03c-6.91-6.03-17.01-6.87-30.03-2.49C1151.62,121.64,1136.72,128.07,1137.47,137.22z"/>
	<path class="st7" d="M1192.4,161.73c0,0,1.62-28.2-11.72-35.04c-6.13-3.14-19.06-1.13-19.17,2.5
		C1161.28,136.86,1177.87,138.34,1192.4,161.73z"/>
	<path class="st8" d="M1173.98,197.09c0,0-22.9,1.93-28.93,10.01c-3.46,4.64-4.41,8.08,3.83,12.41
		C1154.33,222.38,1155.87,208.86,1173.98,197.09z"/>
	<path class="st9" d="M1209.42,1008.6c-7.4,6.02-21.19,4.16-33.93-0.88c8.07,12.06,11.34,24.01,7.8,31.58
		c-1.57,3.35-5.88,8.75-17.11,7.23c-6.92-0.94-12.55-2.55-16.92-4.86c-5-2.65-8.37-6.22-10.17-10.76c-1.23-3.1-1.65-6.57-1.26-10.44
		l-5.2-2.76l29.08-54.9c3.22,1.71,4.42,5.77,2.67,9.07l-3.45,6.51c6.76-6.67,17.92-14.87,29.24-13.85
		c8.42,0.76,15.11,6.31,19.9,16.52C1214.24,989.99,1217.53,1002.01,1209.42,1008.6z M1156.02,996.89
		c-9.22,13.91-12.54,24.33-9.88,31.02c2.26,5.7,9.4,9.4,21.2,10.99c4.87,0.66,7.94-0.28,9.11-2.79
		C1179.69,1029.19,1172.24,1011.89,1156.02,996.89z M1203.19,984.49c-3.58-7.64-8.24-11.77-13.86-12.27
		c-10.73-0.96-23.2,10.73-27.56,16.54c-0.44,0.58-0.87,1.16-1.29,1.74c14.29,11.4,37.36,17.75,44.26,12.14
		C1209.13,999.08,1205.65,989.74,1203.19,984.49z"/>
	<path class="st10" d="M1170.54,988.66c0,0,11.83-12.69,20.53-9.68c4,1.39,8.6,7.98,7.03,9.57
		C1194.8,991.91,1187.09,985.18,1170.54,988.66z"/>
	<path class="st11" d="M1162.66,1011.85c0,0,8.87,10.98,7.84,17.09c-0.59,3.51-1.71,5.39-7.14,3.57
		C1159.78,1031.31,1165.13,1024.89,1162.66,1011.85z"/>
	<path class="st9" d="M916.17,906.57c4.63,13.25,3.76,23.68-2.59,30.98c-8.53,9.82-24.69,10.94-35.91,10.02l8.34,3.36
		c4.23,1.71,6.66,6.43,5.43,10.54l-70.34-28.35l1.99-6.64c-3.58-3.3-6.15-6.86-7.74-10.71c-2.33-5.64-2.55-11.6-0.63-17.99
		c1.68-5.58,4.98-11.49,9.93-17.79c8.04-10.22,16.16-8.57,20.28-6.68c9.3,4.27,16.66,17.97,20.12,35.52
		c6.32-14.67,16.19-27.21,27.39-27.41C904.73,881.21,912.13,894.98,916.17,906.57z M841.95,881.64c-3.08-1.42-6.42,0.11-9.9,4.55
		c-8.44,10.74-11.24,19.77-8.32,26.85c3.43,8.32,14.95,15.41,34.31,21.15C858.87,907.5,850.48,885.56,841.95,881.64z M893.61,890.65
		c-10.45,0.19-24.23,24.18-26.47,46c0.83,0.2,1.67,0.41,2.53,0.61c8.51,2,28.7,3.11,36.78-6.2c4.23-4.87,4.62-12.37,1.15-22.29
		C905.22,901.95,900.24,890.53,893.61,890.65z"/>
	<path class="st10" d="M877.02,930.48c0,0,20.5,2.55,25.17-7.08c2.15-4.42,0.41-14.17-2.23-14.42
		C894.39,908.43,893.67,920.74,877.02,930.48z"/>
	<path class="st11" d="M850.96,915.05c0,0-1.89-17.18-7.89-22.07c-3.44-2.8-5.96-3.68-8.93,2.26
		C832.18,899.18,842.03,900.97,850.96,915.05z"/>
	<path class="st9" d="M890.86,1026c-7.09,5.52-20.05,3.5-31.95-1.49c7.37,11.52,10.22,22.84,6.74,29.9
		c-1.54,3.13-5.71,8.13-16.26,6.48c-6.5-1.02-11.77-2.64-15.84-4.91c-4.66-2.59-7.76-6.02-9.37-10.33c-1.1-2.94-1.43-6.22-0.99-9.86
		l-4.85-2.7l28.46-51.16c3,1.67,4.05,5.52,2.34,8.6l-3.37,6.07c6.5-6.15,17.17-13.66,27.82-12.48c7.91,0.88,14.11,6.24,18.42,15.95
		C895.77,1008.57,898.63,1019.96,890.86,1026z M840.78,1013.93c-8.95,12.93-12.28,22.67-9.91,29.03c2.02,5.41,8.67,9.03,19.76,10.77
		c4.58,0.72,7.49-0.11,8.64-2.45C862.46,1044.82,855.78,1028.38,840.78,1013.93z M885.46,1003.17c-3.23-7.27-7.54-11.24-12.81-11.83
		c-10.09-1.12-22.06,9.65-26.28,15.05c-0.42,0.54-0.84,1.08-1.25,1.61c13.24,11.02,34.85,17.45,41.46,12.3
		C890.77,1017.03,887.68,1008.16,885.46,1003.17z"/>
	<path class="st10" d="M854.62,1006.46c0,0,11.39-11.73,19.53-8.72c3.74,1.38,7.94,7.68,6.44,9.15
		C877.41,1010,870.28,1003.5,854.62,1006.46z"/>
	<path class="st11" d="M846.76,1028.15c0,0,8.14,10.52,7.06,16.26c-0.62,3.29-1.72,5.05-6.79,3.23
		C843.66,1046.44,848.83,1040.49,846.76,1028.15z"/>
	<path class="st12" d="M663.02,838.88c-2.15,5.45,1.55,13.33,6.93,20.03c-8.64-2.7-16.31-2.57-20.11,0.85
		c-1.68,1.52-4.06,5.02-1.04,11.44c1.86,3.96,3.87,7.02,6.07,9.22c2.51,2.51,5.25,3.89,8.27,4.18c2.06,0.19,4.19-0.16,6.4-1.06
		l2.61,2.62l26.91-26.85c-1.62-1.62-4.24-1.62-5.86-0.01l-3.19,3.18c2.66-5.18,5.39-13.25,2.65-19.8
		c-2.04-4.87-6.58-7.89-13.51-8.96C673.1,832.77,665.38,832.91,663.02,838.88z M680.02,868.6c-6.47,7.9-11.99,11.69-16.44,11.27
		c-3.79-0.35-7.32-3.95-10.49-10.69c-1.31-2.78-1.34-4.77-0.08-5.91C656.49,860.15,668.1,861.56,680.02,868.6z M678.43,838.39
		c5.19,0.8,8.5,2.86,9.86,6.11c2.59,6.21-1.95,15.67-4.56,19.27c-0.26,0.36-0.52,0.72-0.78,1.07c-9.43-6.51-17.53-19.13-15.53-24.21
		C668.7,837.4,674.87,837.84,678.43,838.39z"/>
	<path class="st13" d="M682.14,858.53c0,0,5.26-9.25,1.83-13.9c-1.57-2.14-6.33-3.72-6.98-2.52
		C675.64,844.67,681.06,848.08,682.14,858.53z"/>
	<path class="st14" d="M669.94,867.25c0,0-8.16-3.36-11.57-1.69c-1.96,0.96-2.86,1.96-0.76,4.87
		C658.99,872.36,661.77,868.05,669.94,867.25z"/>
	<path class="st12" d="M718.62,894.61c-5.42,2.18-13.14-1.4-19.68-6.64c2.54,8.51,2.3,16.09-1.14,19.87
		c-1.52,1.68-5.02,4.06-11.31,1.14c-3.88-1.8-6.88-3.76-9.01-5.9c-2.45-2.45-3.77-5.15-4-8.13c-0.16-2.03,0.22-4.14,1.15-6.33
		l-2.54-2.55l26.91-26.85c1.58,1.58,1.54,4.17-0.08,5.79l-3.19,3.18c5.15-2.68,13.16-5.46,19.6-2.82c4.78,1.96,7.7,6.42,8.65,13.25
		C724.8,884.6,724.55,892.23,718.62,894.61z M689.52,878.12c-7.9,6.47-11.72,11.96-11.38,16.35c0.29,3.74,3.8,7.19,10.41,10.26
		c2.73,1.27,4.69,1.27,5.83,0.02C697.53,901.28,696.3,889.82,689.52,878.12z M719.34,879.39c-0.71-5.11-2.7-8.37-5.88-9.68
		c-6.1-2.5-15.5,2.08-19.1,4.69c-0.36,0.26-0.72,0.52-1.07,0.78c6.29,9.24,18.64,17.12,23.68,15.09
		C720.17,888.99,719.83,882.9,719.34,879.39z"/>
	<path class="st13" d="M699.49,875.93c0,0,9.21-5.29,13.75-1.95c2.09,1.53,3.59,6.22,2.38,6.87
		C713.09,882.21,709.8,876.89,699.49,875.93z"/>
	<path class="st14" d="M690.7,888.07c0,0,3.2,8.02,1.5,11.41c-0.98,1.94-1.98,2.84-4.82,0.8
		C685.5,898.93,689.79,896.14,690.7,888.07z"/>
	<path class="st15" d="M674.03,920.62c-5.85,0.3-11.49,6.93-15.36,14.6c-1.12-8.98-4.42-15.91-9.11-17.95
		c-2.08-0.9-6.25-1.61-10.84,3.79c-2.83,3.33-4.78,6.43-5.88,9.34c-1.25,3.33-1.37,6.39-0.38,9.26c0.68,1.96,1.88,3.75,3.62,5.38
		l-1.3,3.46l35.58,13.38c0.81-2.14-0.28-4.53-2.42-5.34l-4.22-1.59c5.82,0.27,14.29-0.58,19.12-5.79c3.59-3.87,4.46-9.26,2.56-16
		C683.76,927.26,680.44,920.3,674.03,920.62z M654.01,948.41c-9.87-2.62-15.61-6.07-17.07-10.3c-1.25-3.6,0.57-8.3,5.39-13.98
		c1.99-2.35,3.79-3.19,5.34-2.52C651.97,923.48,655.49,934.64,654.01,948.41z M680.86,934.44c1.42,5.05,0.92,8.92-1.47,11.5
		c-4.58,4.93-15.07,4.71-19.43,3.83c-0.44-0.09-0.87-0.18-1.29-0.27c2.02-11.28,10.15-23.88,15.61-24.16
		C677.73,925.17,679.88,930.97,680.86,934.44z"/>
	<path class="st16" d="M664.05,946.16c0,0,10.59,0.96,13.41-4.09c1.29-2.32,0.77-7.31-0.6-7.39
		C673.98,934.5,673.12,940.86,664.05,946.16z"/>
	<path class="st17" d="M651.07,938.67c0,0-0.32-8.82-3.25-11.23c-1.69-1.38-2.97-1.79-4.74,1.32
		C641.89,930.82,646.96,931.57,651.07,938.67z"/>
	<path class="st15" d="M646.33,994.31c-4.23-4.03-4.17-12.54-2.11-20.66c-6.69,5.84-13.69,8.75-18.56,7.19
		c-2.16-0.69-5.77-2.89-5.72-9.82c0.03-4.28,0.57-7.81,1.64-10.65c1.22-3.24,3.12-5.56,5.74-7.01c1.78-0.99,3.86-1.51,6.24-1.58
		l1.27-3.37l35.58,13.38c-0.79,2.09-3.16,3.13-5.3,2.32l-4.22-1.59c4.57,3.58,10.42,9.72,10.68,16.67c0.2,5.17-2.66,9.66-8.48,13.36
		C658,995.79,650.96,998.72,646.33,994.31z M649.28,960.99c-9.16-4.51-15.74-5.72-19.59-3.58c-3.28,1.82-4.97,6.43-5.02,13.72
		c-0.02,3.01,0.79,4.8,2.4,5.31C631.52,977.87,641.44,972.01,649.28,960.99z M660.48,988.66c4.36-2.77,6.5-5.92,6.37-9.36
		c-0.25-6.59-8.32-13.25-12.18-15.44c-0.39-0.22-0.77-0.43-1.15-0.65c-5.81,9.56-7.87,24.05-3.93,27.81
		C652.09,993.4,657.48,990.56,660.48,988.66z"/>
	<path class="st16" d="M655.41,969.16c0,0,8.63,6.19,7.47,11.71c-0.53,2.53-4.17,5.84-5.26,5.01
		C655.32,984.14,658.81,978.94,655.41,969.16z"/>
	<path class="st17" d="M640.72,966.19c0,0-5.98,6.24-9.76,6.09c-2.17-0.09-3.41-0.62-2.72-4.05
		C628.68,965.95,633,968.7,640.72,966.19z"/>
	<path class="st18" d="M587.66,788.46c-5.57,3.65-7.29,13.38-6.69,23.11c-6.24-8.16-13.45-13.06-19.21-12.38
		c-2.55,0.3-7.05,2-8.45,9.93c-0.86,4.89-1,9.05-0.41,12.52c0.68,3.98,2.32,7.05,4.94,9.29c1.79,1.53,3.99,2.59,6.63,3.2l0.71,4.13
		l42.54-7.28c-0.44-2.56-2.87-4.28-5.43-3.84l-5.04,0.86c5.86-3.06,13.67-8.76,15.42-16.63c1.3-5.85-0.94-11.63-6.66-17.15
		C601,789.4,593.75,784.47,587.66,788.46z M583.96,827.16c-11.18,3.09-18.77,2.99-22.63-0.31c-3.28-2.81-4.2-8.46-2.73-16.79
		c0.61-3.44,1.89-5.3,3.8-5.53C567.67,803.91,577.52,812.83,583.96,827.16z M602.27,798.1c4.28,4.14,6.01,8.22,5.15,12.12
		c-1.66,7.46-12.07,13.25-16.84,14.89c-0.48,0.16-0.95,0.32-1.42,0.48c-4.48-12.21-3.73-29.22,1.46-32.62
		C593.89,790.81,599.33,795.25,602.27,798.1z"/>
	<path class="st19" d="M592.51,819.21c0,0,10.93-5.13,10.8-11.69c-0.06-3.01-3.43-7.6-4.82-6.9
		C595.56,802.09,598.36,808.81,592.51,819.21z"/>
	<path class="st20" d="M575.49,819.3c0,0-5.36-8.46-9.62-9.14c-2.44-0.39-3.93-0.06-3.89,4.01C562,816.87,567.4,814.7,575.49,819.3z
		"/>
	<path class="st18" d="M602.73,876.56c-6.45-1.52-11.27-9.9-13.9-19.04c-3.21,9.55-8.4,16.42-14.07,17.68
		c-2.51,0.56-7.31,0.48-11.24-6.35c-2.42-4.21-3.92-7.99-4.5-11.37c-0.66-3.88-0.12-7.24,1.61-10.16c1.18-1.99,2.92-3.7,5.21-5.12
		l-0.69-4.03l42.54-7.28c0.43,2.5-1.3,4.88-3.86,5.31l-5.04,0.86c6.53,0.89,15.78,3.56,20.02,10.22c3.15,4.95,2.93,10.99-0.66,17.95
		C615.01,871.32,609.79,878.23,602.73,876.56z M586.53,842.2c-11.56,0.83-18.7,3.41-21.26,7.71c-2.18,3.66-1.19,9.15,2.94,16.33
		c1.7,2.96,3.52,4.25,5.4,3.83C578.8,868.92,585.16,857.49,586.53,842.2z M613.36,862.91c2.69-5.21,2.98-9.53,0.88-12.83
		c-4.02-6.31-15.74-8.22-20.79-8.15c-0.51,0.01-1.01,0.02-1.5,0.03c-0.22,12.69,6.07,28.08,12.08,29.5
		C607.84,872.36,611.51,866.49,613.36,862.91z"/>
	<path class="st19" d="M597.22,846.71c0,0,12,1.13,14.03,7.19c0.93,2.79-0.75,8.11-2.29,7.93
		C605.71,861.44,606.15,854.34,597.22,846.71z"/>
	<path class="st20" d="M581.12,852.21c0,0-2.28,9.54-6.08,11.56c-2.18,1.16-3.69,1.34-4.99-2.41
		C569.19,858.87,574.99,859.09,581.12,852.21z"/>
	<path class="st15" d="M550.53,899.7c-1.02,4.88,3.22,10.94,8.69,15.77c-7.63-1.02-14.03,0.2-16.72,3.62
		c-1.19,1.51-2.67,4.79,0.78,9.73c2.13,3.04,4.26,5.32,6.41,6.84c2.46,1.74,4.96,2.5,7.53,2.3c1.75-0.14,3.49-0.74,5.21-1.81
		l2.56,1.81l18.67-26.37c-1.59-1.12-3.78-0.75-4.91,0.84l-2.21,3.13c1.48-4.72,2.6-11.87-0.64-16.97c-2.41-3.79-6.65-5.66-12.6-5.55
		C558.08,893.13,551.64,894.36,550.53,899.7z M569.05,922.14c-4.28,7.55-8.35,11.52-12.14,11.81c-3.23,0.25-6.7-2.25-10.33-7.44
		c-1.5-2.14-1.81-3.8-0.92-4.93C548.12,918.45,558.05,917.96,569.05,922.14z M563.36,897.06c4.46-0.08,7.53,1.17,9.14,3.69
		c3.07,4.83,0.63,13.4-1.04,16.8c-0.17,0.34-0.33,0.68-0.5,1.01c-8.83-4.1-17.44-13.49-16.5-18.04
		C555.07,897.63,560.29,897.12,563.36,897.06z"/>
	<path class="st16" d="M569.37,913.4c0,0,3.07-8.5-0.47-11.9c-1.63-1.56-5.84-2.21-6.21-1.1
		C561.92,902.73,566.96,904.8,569.37,913.4z"/>
	<path class="st17" d="M560.41,922.46c0,0-7.32-1.64-9.93,0.25c-1.5,1.09-2.11,2.05,0.06,4.18
		C551.98,928.31,553.69,924.31,560.41,922.46z"/>
	<path class="st15" d="M605.13,938.35c-4.22,2.61-11.21,0.73-17.44-2.72c3.36,6.76,4.24,13.14,1.91,16.8
		c-1.03,1.62-3.62,4.12-9.31,2.59c-3.51-0.95-6.3-2.15-8.4-3.64c-2.4-1.7-3.9-3.77-4.52-6.23c-0.43-1.68-0.41-3.5,0.05-5.47
		l-2.5-1.77l18.67-26.37c1.55,1.1,1.89,3.27,0.77,4.86l-2.21,3.13c3.93-2.99,10.24-6.47,16.01-5.19c4.29,0.95,7.37,4.27,9.16,9.85
		C608.86,929.08,609.75,935.49,605.13,938.35z M578.38,928.74c-5.68,6.56-8.09,11.71-7.17,15.33c0.79,3.09,4.22,5.47,10.2,7.09
		c2.47,0.67,4.11,0.39,4.89-0.83C588.42,946.98,585.74,937.56,578.38,928.74z M603.53,925.5c-1.34-4.18-3.46-6.62-6.32-7.26
		c-5.47-1.21-12.68,3.98-15.32,6.69c-0.26,0.27-0.52,0.54-0.78,0.81c6.61,6.83,18.08,11.65,22.01,9.22
		C605.62,933.42,604.45,928.37,603.53,925.5z"/>
	<path class="st16" d="M586.41,925.46c0,0,6.95-5.76,11.23-3.62c1.97,0.98,3.9,4.69,2.98,5.41
		C598.71,928.76,595.18,924.78,586.41,925.46z"/>
	<path class="st17" d="M580.8,936.9c0,0,3.84,6.26,2.9,9.34c-0.54,1.77-1.24,2.67-3.92,1.37C578.02,946.74,581.2,943.79,580.8,936.9
		z"/>
	<path class="st21" d="M518.4,785.24c-4.75,1.82-7.61,8.81-8.73,16.17c-3.34-7.11-7.93-11.93-12.34-12.35
		c-1.96-0.19-5.59,0.35-7.92,6.05c-1.44,3.51-2.21,6.59-2.33,9.28c-0.14,3.08,0.59,5.64,2.18,7.73c1.09,1.43,2.56,2.58,4.43,3.46
		l-0.14,3.2l32.94,1.45c0.09-1.98-1.45-3.66-3.43-3.75l-3.91-0.17c4.87-1.34,11.63-4.33,14.21-9.92c1.92-4.16,1.18-8.83-2.2-13.89
		C528.21,788.09,523.6,783.24,518.4,785.24z M509.38,813.54c-8.85,0.5-14.5-0.8-16.85-3.89c-2-2.63-1.77-7,0.68-12.98
		c1.01-2.47,2.27-3.65,3.73-3.51C500.98,793.54,506.89,801.79,509.38,813.54z M527.75,794.8c2.53,3.78,3.16,7.11,1.88,9.88
		c-2.45,5.3-11.15,7.94-14.99,8.39c-0.38,0.04-0.76,0.09-1.14,0.13c-1.37-9.84,1.94-22.42,6.36-24.12
		C522.68,788,526.01,792.2,527.75,794.8z"/>
	<path class="st22" d="M517.05,808.98c0,0,8.99-2.06,9.96-6.98c0.44-2.26-1.33-6.23-2.49-5.93
		C522.1,796.7,523.1,802.17,517.05,808.98z"/>
	<path class="st23" d="M504.33,806.3c0,0-2.64-7.19-5.71-8.38c-1.76-0.69-2.93-0.68-3.56,2.37
		C494.65,802.3,499.02,801.55,504.33,806.3z"/>
	<path class="st21" d="M515.4,853.46c-4.57-2.18-6.82-9.22-7.3-16.47c-3.94,6.61-8.93,10.9-13.36,10.93
		c-1.97,0.01-5.54-0.83-7.36-6.56c-1.13-3.53-1.63-6.6-1.52-9.22c0.13-3,1.08-5.43,2.84-7.32c1.21-1.3,2.78-2.29,4.72-2.98
		l0.14-3.12l32.94,1.45c-0.08,1.93-1.76,3.43-3.74,3.34l-3.91-0.17c4.73,1.72,11.21,5.21,13.29,10.87c1.55,4.21,0.41,8.68-3.39,13.3
		C525.42,851.54,520.41,855.85,515.4,853.46z M508.87,825.19c-8.77-1.25-14.52-0.48-17.12,2.32c-2.22,2.38-2.37,6.64-0.45,12.67
		c0.79,2.49,1.94,3.74,3.41,3.74C498.77,843.89,505.37,836.38,508.87,825.19z M525.55,844.99c2.85-3.46,3.77-6.63,2.73-9.44
		c-1.98-5.36-10.42-8.68-14.2-9.45c-0.38-0.08-0.75-0.15-1.12-0.22c-2.21,9.45-0.01,21.95,4.25,23.99
		C519.9,851.15,523.59,847.36,525.55,844.99z"/>
	<path class="st22" d="M516.12,830.28c0,0,8.78,2.78,9.31,7.64c0.25,2.23-1.87,5.94-2.99,5.55
		C520.08,842.65,521.55,837.42,516.12,830.28z"/>
	<path class="st23" d="M503.21,831.78c0,0-3.25,6.75-6.41,7.65c-1.82,0.51-2.98,0.41-3.34-2.61
		C493.22,834.83,497.51,835.93,503.21,831.78z"/>
	<path class="st21" d="M445.32,739.18c-3.95,3.2-4.52,10.73-3.32,18.08c-5.37-5.73-11.22-8.9-15.55-7.94
		c-1.92,0.43-5.21,2.06-5.67,8.19c-0.28,3.78-0.07,6.95,0.64,9.55c0.82,2.97,2.3,5.18,4.46,6.68c1.47,1.03,3.23,1.67,5.29,1.93
		l0.85,3.09l31.78-8.78c-0.53-1.91-2.51-3.04-4.42-2.51l-3.77,1.04c4.22-2.78,9.73-7.7,10.46-13.82c0.54-4.55-1.6-8.77-6.37-12.53
		C455.53,738.87,449.65,735.68,445.32,739.18z M445.46,768.88c-8.26,3.2-14.04,3.71-17.23,1.49c-2.71-1.89-3.84-6.11-3.36-12.55
		c0.2-2.66,1.03-4.17,2.46-4.49C431.31,752.45,439.47,758.48,445.46,768.88z M457.16,745.39c3.57,2.82,5.2,5.79,4.84,8.82
		c-0.69,5.8-8.16,11-11.67,12.6c-0.35,0.16-0.7,0.32-1.05,0.47c-4.34-8.94-5.07-21.93-1.38-24.91
		C450.24,740.49,454.71,743.45,457.16,745.39z"/>
	<path class="st22" d="M451.36,762.18c0,0,7.92-4.74,7.32-9.71c-0.28-2.28-3.19-5.52-4.19-4.88
		C452.37,748.94,455.01,753.84,451.36,762.18z"/>
	<path class="st23" d="M438.43,763.56c0,0-4.72-6.02-8.01-6.22c-1.89-0.11-2.99,0.26-2.65,3.35
		C427.98,762.74,431.92,760.68,438.43,763.56z"/>
	<path class="st21" d="M463.5,805c-5.02-0.67-9.33-6.67-12.02-13.42c-1.71,7.51-5.13,13.12-9.34,14.52
		c-1.87,0.62-5.52,0.92-9.03-3.97c-2.16-3.01-3.59-5.77-4.29-8.3c-0.8-2.9-0.65-5.5,0.45-7.84c0.75-1.6,1.93-3.03,3.57-4.29
		l-0.83-3.01l31.78-8.78c0.52,1.87-0.62,3.81-2.53,4.34l-3.77,1.04c5.04,0.18,12.27,1.5,16,6.24c2.77,3.52,3.07,8.13,0.87,13.7
		C472.44,800.09,469,805.73,463.5,805z M448.57,780.12c-8.73,1.51-13.96,4.02-15.57,7.49c-1.37,2.95-0.2,7.05,3.48,12.19
		c1.52,2.12,3,2.96,4.4,2.5C444.73,801.03,448.69,791.85,448.57,780.12z M470.54,793.82c1.64-4.17,1.54-7.47-0.31-9.82
		c-3.54-4.49-12.59-5.05-16.43-4.61c-0.38,0.04-0.76,0.09-1.14,0.14c0.81,9.67,6.76,20.89,11.44,21.51
		C467.07,801.42,469.41,796.68,470.54,793.82z"/>
	<path class="st22" d="M457.04,782.73c0,0,9.21-0.06,11.22,4.4c0.92,2.05,0.05,6.22-1.13,6.2
		C464.62,793.28,464.41,787.85,457.04,782.73z"/>
	<path class="st23" d="M445.22,788.14c0,0-1.01,7.43-3.74,9.25c-1.57,1.05-2.71,1.3-3.98-1.45
		C436.65,794.12,441.08,793.85,445.22,788.14z"/>
</g>
<g id="Layer_3">
	<path class="st24" d="M270.78,759.08c-5.57,3.65-7.29,13.38-6.69,23.11c-6.24-8.16-13.45-13.06-19.21-12.38
		c-2.55,0.3-7.05,2-8.45,9.93c-0.86,4.89-1,9.05-0.41,12.52c0.68,3.98,2.32,7.05,4.94,9.29c1.79,1.53,3.99,2.59,6.63,3.2l0.71,4.13
		l42.54-7.28c-0.44-2.56-2.87-4.28-5.43-3.84l-5.04,0.86c5.86-3.06,13.67-8.76,15.42-16.63c1.3-5.85-0.94-11.63-6.66-17.15
		C284.12,760.01,276.87,755.08,270.78,759.08z M267.08,797.77c-11.18,3.09-18.77,2.99-22.63-0.31c-3.28-2.81-4.2-8.46-2.73-16.79
		c0.61-3.44,1.89-5.3,3.8-5.53C250.79,774.52,260.64,783.44,267.08,797.77z M285.39,768.71c4.28,4.14,6.01,8.22,5.15,12.12
		c-1.66,7.46-12.07,13.25-16.84,14.89c-0.48,0.16-0.95,0.32-1.42,0.48c-4.48-12.21-3.73-29.22,1.46-32.62
		C277.01,761.42,282.44,765.87,285.39,768.71z"/>
	<path class="st25" d="M275.63,789.82c0,0,10.93-5.13,10.8-11.68c-0.06-3.01-3.43-7.6-4.82-6.9
		C278.68,772.71,281.48,779.42,275.63,789.82z"/>
	<path class="st26" d="M258.61,789.92c0,0-5.36-8.46-9.62-9.14c-2.44-0.39-3.93-0.06-3.89,4.01
		C245.12,787.48,250.51,785.31,258.61,789.92z"/>
	<path class="st24" d="M285.85,847.17c-6.45-1.52-11.27-9.9-13.9-19.04c-3.21,9.55-8.4,16.42-14.07,17.68
		c-2.51,0.56-7.31,0.48-11.24-6.35c-2.42-4.21-3.92-7.99-4.5-11.37c-0.66-3.88-0.12-7.24,1.61-10.16c1.18-1.99,2.92-3.7,5.21-5.12
		l-0.69-4.03l42.54-7.28c0.43,2.5-1.3,4.88-3.86,5.31l-5.04,0.86c6.53,0.89,15.78,3.56,20.02,10.22c3.15,4.95,2.93,10.99-0.66,17.95
		C298.13,841.93,292.91,848.84,285.85,847.17z M269.65,812.82c-11.56,0.83-18.7,3.41-21.26,7.71c-2.18,3.66-1.19,9.15,2.94,16.33
		c1.7,2.96,3.52,4.25,5.4,3.83C261.91,839.54,268.28,828.11,269.65,812.82z M296.47,833.52c2.69-5.21,2.98-9.53,0.88-12.83
		c-4.02-6.31-15.74-8.22-20.79-8.15c-0.51,0.01-1.01,0.02-1.5,0.03c-0.22,12.69,6.07,28.08,12.08,29.5
		C290.96,842.97,294.63,837.1,296.47,833.52z"/>
	<path class="st25" d="M280.34,817.32c0,0,12,1.13,14.03,7.19c0.93,2.79-0.75,8.11-2.29,7.93
		C288.83,832.05,289.27,824.95,280.34,817.32z"/>
	<path class="st26" d="M264.24,822.82c0,0-2.28,9.54-6.08,11.56c-2.18,1.16-3.69,1.34-4.99-2.41
		C252.3,829.48,258.11,829.7,264.24,822.82z"/>
	<path class="st27" d="M181.72,845.73c-1.02,4.88,3.22,10.94,8.69,15.77c-7.63-1.02-14.03,0.2-16.72,3.62
		c-1.19,1.51-2.67,4.79,0.78,9.73c2.13,3.04,4.26,5.32,6.41,6.84c2.46,1.74,4.96,2.5,7.53,2.3c1.75-0.14,3.49-0.74,5.21-1.81
		l2.56,1.81l18.67-26.37c-1.59-1.12-3.78-0.75-4.91,0.84l-2.21,3.13c1.48-4.72,2.6-11.87-0.64-16.97c-2.41-3.79-6.65-5.66-12.6-5.55
		C189.27,839.16,182.83,840.39,181.72,845.73z M200.24,868.17c-4.28,7.55-8.35,11.52-12.14,11.81c-3.23,0.25-6.7-2.25-10.33-7.44
		c-1.5-2.14-1.81-3.8-0.92-4.93C179.31,864.48,189.25,863.99,200.24,868.17z M194.55,843.09c4.46-0.08,7.53,1.17,9.14,3.69
		c3.07,4.83,0.63,13.4-1.04,16.8c-0.17,0.34-0.33,0.68-0.5,1.01c-8.83-4.1-17.44-13.49-16.5-18.04
		C186.26,843.67,191.49,843.15,194.55,843.09z"/>
	<path class="st28" d="M200.56,859.43c0,0,3.07-8.5-0.47-11.9c-1.63-1.56-5.84-2.21-6.21-1.1
		C193.12,848.76,198.15,850.83,200.56,859.43z"/>
	<path class="st29" d="M191.6,868.49c0,0-7.32-1.64-9.93,0.25c-1.5,1.09-2.11,2.05,0.06,4.18
		C183.17,874.34,184.88,870.34,191.6,868.49z"/>
	<path class="st27" d="M236.32,884.38c-4.22,2.61-11.21,0.73-17.44-2.72c3.36,6.76,4.24,13.14,1.91,16.8
		c-1.03,1.62-3.62,4.12-9.31,2.59c-3.51-0.95-6.3-2.15-8.4-3.64c-2.4-1.7-3.9-3.77-4.52-6.23c-0.43-1.68-0.41-3.5,0.05-5.47
		l-2.5-1.77l18.67-26.37c1.55,1.1,1.89,3.27,0.77,4.86l-2.21,3.13c3.93-2.99,10.24-6.47,16.01-5.19c4.29,0.95,7.37,4.27,9.16,9.85
		C240.05,875.11,240.94,881.53,236.32,884.38z M209.57,874.77c-5.68,6.56-8.09,11.71-7.17,15.33c0.79,3.09,4.22,5.47,10.2,7.09
		c2.47,0.67,4.11,0.39,4.89-0.83C219.61,893.01,216.93,883.59,209.57,874.77z M234.72,871.53c-1.34-4.18-3.46-6.62-6.32-7.26
		c-5.47-1.21-12.68,3.98-15.32,6.69c-0.26,0.27-0.52,0.54-0.78,0.81c6.61,6.83,18.08,11.65,22.01,9.22
		C236.81,879.45,235.64,874.4,234.72,871.53z"/>
	<path class="st28" d="M217.61,871.5c0,0,6.95-5.76,11.23-3.62c1.97,0.98,3.9,4.69,2.99,5.41
		C229.9,874.8,226.38,870.81,217.61,871.5z"/>
	<path class="st29" d="M212,882.93c0,0,3.84,6.26,2.9,9.34c-0.54,1.77-1.24,2.67-3.92,1.37C209.21,892.77,212.4,889.82,212,882.93z"
		/>
	<path class="st30" d="M123.98,846.13c-4.75,1.82-7.61,8.81-8.73,16.17c-3.34-7.11-7.93-11.93-12.34-12.35
		c-1.96-0.19-5.59,0.35-7.92,6.05c-1.44,3.51-2.21,6.59-2.33,9.28c-0.14,3.08,0.59,5.64,2.18,7.73c1.09,1.43,2.56,2.58,4.43,3.46
		l-0.14,3.2l32.94,1.45c0.09-1.98-1.45-3.66-3.43-3.75l-3.91-0.17c4.87-1.34,11.63-4.33,14.21-9.92c1.92-4.16,1.18-8.83-2.2-13.89
		C133.79,848.98,129.18,844.13,123.98,846.13z M114.96,874.43c-8.85,0.5-14.5-0.8-16.85-3.89c-2-2.63-1.77-7,0.68-12.98
		c1.01-2.47,2.27-3.65,3.73-3.51C106.56,854.43,112.47,862.68,114.96,874.43z M133.33,855.68c2.53,3.78,3.16,7.11,1.88,9.88
		c-2.45,5.3-11.15,7.94-14.99,8.39c-0.38,0.04-0.76,0.09-1.14,0.13c-1.37-9.84,1.94-22.42,6.36-24.12
		C128.26,848.88,131.6,853.08,133.33,855.68z"/>
	<path class="st31" d="M122.63,869.87c0,0,8.99-2.06,9.96-6.98c0.44-2.26-1.33-6.23-2.49-5.93
		C127.68,857.58,128.68,863.05,122.63,869.87z"/>
	<path class="st32" d="M109.91,867.19c0,0-2.64-7.19-5.71-8.38c-1.76-0.69-2.93-0.68-3.56,2.37
		C100.23,863.19,104.61,862.44,109.91,867.19z"/>
	<path class="st30" d="M120.99,914.35c-4.57-2.18-6.82-9.22-7.3-16.47c-3.94,6.61-8.93,10.9-13.36,10.93
		c-1.97,0.01-5.54-0.83-7.36-6.56c-1.13-3.53-1.63-6.6-1.52-9.22c0.13-3,1.08-5.43,2.84-7.32c1.21-1.3,2.78-2.29,4.72-2.98
		l0.14-3.12l32.94,1.45c-0.08,1.93-1.76,3.43-3.74,3.34l-3.91-0.17c4.73,1.72,11.21,5.21,13.29,10.87c1.55,4.21,0.41,8.68-3.39,13.3
		C131.01,912.43,125.99,916.74,120.99,914.35z M114.45,886.08c-8.77-1.25-14.52-0.48-17.12,2.32c-2.22,2.38-2.37,6.64-0.45,12.67
		c0.79,2.49,1.94,3.74,3.41,3.74C104.35,904.78,110.95,897.27,114.45,886.08z M131.13,905.87c2.85-3.46,3.77-6.63,2.73-9.44
		c-1.98-5.36-10.42-8.68-14.2-9.45c-0.38-0.08-0.75-0.15-1.12-0.22c-2.21,9.45-0.01,21.95,4.25,23.99
		C125.49,912.04,129.17,908.25,131.13,905.87z"/>
	<path class="st31" d="M121.7,891.17c0,0,8.78,2.78,9.31,7.64c0.25,2.23-1.87,5.94-2.99,5.55
		C125.66,903.54,127.14,898.31,121.7,891.17z"/>
	<path class="st32" d="M108.79,892.67c0,0-3.25,6.75-6.41,7.65c-1.82,0.51-2.98,0.41-3.34-2.61
		C98.8,895.72,103.1,896.82,108.79,892.67z"/>
	<path class="st33" d="M364.31,779.79c-3.95,3.2-4.52,10.73-3.32,18.08c-5.37-5.73-11.22-8.9-15.55-7.94
		c-1.92,0.43-5.21,2.06-5.67,8.19c-0.28,3.78-0.07,6.95,0.64,9.55c0.82,2.97,2.3,5.18,4.46,6.68c1.47,1.03,3.23,1.67,5.29,1.93
		l0.85,3.09l31.78-8.78c-0.53-1.91-2.51-3.04-4.42-2.51l-3.77,1.04c4.22-2.78,9.73-7.7,10.46-13.82c0.54-4.55-1.6-8.77-6.37-12.53
		C374.52,779.48,368.63,776.29,364.31,779.79z M364.45,809.5c-8.26,3.2-14.04,3.71-17.23,1.49c-2.71-1.89-3.84-6.11-3.36-12.55
		c0.2-2.66,1.03-4.17,2.46-4.49C350.29,793.06,358.46,799.09,364.45,809.5z M376.15,786c3.57,2.82,5.2,5.79,4.84,8.82
		c-0.69,5.8-8.16,11-11.67,12.6c-0.35,0.16-0.7,0.32-1.05,0.47c-4.34-8.94-5.07-21.93-1.38-24.91
		C369.23,781.1,373.69,784.07,376.15,786z"/>
	<path class="st34" d="M370.35,802.8c0,0,7.92-4.74,7.32-9.71c-0.28-2.28-3.19-5.52-4.19-4.88
		C371.36,789.55,374,794.45,370.35,802.8z"/>
	<path class="st35" d="M357.41,804.17c0,0-4.72-6.02-8.01-6.22c-1.89-0.11-2.99,0.26-2.65,3.35
		C346.97,803.35,350.91,801.29,357.41,804.17z"/>
	<path class="st33" d="M382.49,845.62c-5.02-0.67-9.33-6.67-12.02-13.42c-1.71,7.51-5.13,13.12-9.34,14.52
		c-1.87,0.62-5.52,0.92-9.03-3.97c-2.16-3.01-3.59-5.77-4.29-8.3c-0.8-2.9-0.65-5.5,0.45-7.84c0.75-1.6,1.93-3.03,3.57-4.29
		l-0.83-3.01l31.78-8.78c0.52,1.87-0.62,3.81-2.53,4.34l-3.77,1.04c5.04,0.18,12.27,1.5,16,6.24c2.77,3.52,3.07,8.13,0.87,13.7
		C391.43,840.7,387.99,846.35,382.49,845.62z M367.55,820.74c-8.73,1.51-13.96,4.02-15.57,7.49c-1.37,2.95-0.2,7.05,3.48,12.19
		c1.52,2.12,3,2.96,4.4,2.5C363.71,841.64,367.68,832.46,367.55,820.74z M389.53,834.43c1.64-4.17,1.54-7.47-0.31-9.82
		c-3.54-4.49-12.59-5.05-16.43-4.61c-0.38,0.04-0.76,0.09-1.14,0.14c0.81,9.67,6.76,20.89,11.44,21.51
		C386.06,842.03,388.4,837.29,389.53,834.43z"/>
	<path class="st34" d="M376.02,823.34c0,0,9.21-0.06,11.22,4.4c0.92,2.05,0.05,6.22-1.13,6.2
		C383.6,833.89,383.4,828.46,376.02,823.34z"/>
	<path class="st35" d="M364.2,828.75c0,0-1.01,7.43-3.74,9.25c-1.57,1.05-2.71,1.3-3.98-1.45
		C355.64,834.73,360.07,834.46,364.2,828.75z"/>
</g>
</svg>
